<?xml version="1.0" encoding="UTF-8" standalone="no"?>
<!-- Created with Inkscape (http://www.inkscape.org/) -->

<svg
   xmlns:dc="http://purl.org/dc/elements/1.1/"
   xmlns:cc="http://creativecommons.org/ns#"
   xmlns:rdf="http://www.w3.org/1999/02/22-rdf-syntax-ns#"
   xmlns:svg="http://www.w3.org/2000/svg"
   xmlns="http://www.w3.org/2000/svg"
   xmlns:xlink="http://www.w3.org/1999/xlink"
   xmlns:sodipodi="http://sodipodi.sourceforge.net/DTD/sodipodi-0.dtd"
   xmlns:inkscape="http://www.inkscape.org/namespaces/inkscape"
   width="48"
   height="48"
   id="svg2"
   version="1.1"
   inkscape:version="0.91 r"
   sodipodi:docname="audio-x-generic.svg"
   inkscape:export-filename="/home/alexandros/Pictures/personal-icon-set/audio-x-generic.png"
   inkscape:export-xdpi="90"
   inkscape:export-ydpi="90">
  <defs
     id="defs4">
    <linearGradient
       inkscape:collect="always"
       id="linearGradient4320">
      <stop
         style="stop-color:#595959;stop-opacity:0.1"
         offset="0"
         id="stop4322" />
      <stop
         style="stop-color:#595959;stop-opacity:0;"
         offset="1"
         id="stop4324" />
    </linearGradient>
    <inkscape:perspective
       sodipodi:type="inkscape:persp3d"
       inkscape:vp_x="0 : 12 : 1"
       inkscape:vp_y="0 : 1000 : 0"
       inkscape:vp_z="24 : 12 : 1"
       inkscape:persp3d-origin="12 : 8 : 1"
       id="perspective3810" />
    <radialGradient
       inkscape:collect="always"
       xlink:href="#linearGradient4082"
       id="radialGradient3084"
       gradientUnits="userSpaceOnUse"
       gradientTransform="matrix(1,0,0,1.25,0,-5.375)"
       cx="3"
       cy="21.5"
       fx="3"
       fy="21.5"
       r="2" />
    <linearGradient
       id="linearGradient4082">
      <stop
         style="stop-color:#4d4d4d;stop-opacity:1;"
         offset="0"
         id="stop4084" />
      <stop
         style="stop-color:#333333;stop-opacity:1;"
         offset="1"
         id="stop4086" />
    </linearGradient>
    <radialGradient
       inkscape:collect="always"
       xlink:href="#linearGradient3982"
       id="radialGradient3095"
       gradientUnits="userSpaceOnUse"
       cx="-14"
       cy="30"
       fx="-14"
       fy="30"
       r="10" />
    <linearGradient
       id="linearGradient3982">
      <stop
         style="stop-color:#000000;stop-opacity:0.80000001;"
         offset="0"
         id="stop3984" />
      <stop
         style="stop-color:#ffffff;stop-opacity:0.1;"
         offset="1"
         id="stop3986" />
    </linearGradient>
    <radialGradient
       inkscape:collect="always"
       xlink:href="#linearGradient3982"
       id="radialGradient3079"
       gradientUnits="userSpaceOnUse"
       cx="-14"
       cy="30"
       fx="-14"
       fy="30"
       r="10" />
    <radialGradient
       inkscape:collect="always"
       xlink:href="#linearGradient4082"
       id="radialGradient3081"
       gradientUnits="userSpaceOnUse"
       gradientTransform="matrix(1,0,0,1.25,0,-5.375)"
       cx="3"
       cy="21.5"
       fx="3"
       fy="21.5"
       r="2" />
    <radialGradient
       inkscape:collect="always"
       xlink:href="#linearGradient4082-4"
       id="radialGradient3084-0"
       gradientUnits="userSpaceOnUse"
       gradientTransform="matrix(1,0,0,1.25,0,-5.375)"
       cx="3"
       cy="21.5"
       fx="3"
       fy="21.5"
       r="2" />
    <linearGradient
       id="linearGradient4082-4">
      <stop
         style="stop-color:#4d4d4d;stop-opacity:1;"
         offset="0"
         id="stop4084-6" />
      <stop
         style="stop-color:#333333;stop-opacity:1;"
         offset="1"
         id="stop4086-6" />
    </linearGradient>
    <linearGradient
       inkscape:collect="always"
       xlink:href="#linearGradient3914"
       id="linearGradient3012"
       gradientUnits="userSpaceOnUse"
       gradientTransform="translate(-307.99999,1255.6545)"
       x1="315.875"
       y1="-244.04208"
       x2="347.93805"
       y2="-211.97903" />
    <linearGradient
       id="linearGradient3914">
      <stop
         style="stop-color:#ffffff;stop-opacity:0.14901961;"
         offset="0"
         id="stop3916" />
      <stop
         style="stop-color:#177ed5;stop-opacity:0;"
         offset="1"
         id="stop3918" />
    </linearGradient>
    <linearGradient
       inkscape:collect="always"
       xlink:href="#linearGradient4320"
       id="linearGradient4326"
       x1="-21.630238"
       y1="1016.8058"
       x2="15.926111"
       y2="1054.3622"
       gradientUnits="userSpaceOnUse"
       gradientTransform="translate(30.073888,-3.9998526)" />
  </defs>
  <sodipodi:namedview
     id="base"
     pagecolor="#ffffff"
     bordercolor="#666666"
     borderopacity="1.0"
     inkscape:pageopacity="0.0"
     inkscape:pageshadow="2"
     inkscape:zoom="11.313708"
     inkscape:cx="1.3842722"
     inkscape:cy="25.610536"
     inkscape:document-units="px"
     inkscape:current-layer="layer1"
     showgrid="false"
     inkscape:snap-grids="true"
     inkscape:object-paths="true"
     inkscape:snap-intersection-paths="true"
     inkscape:snap-smooth-nodes="true"
     inkscape:object-nodes="true"
     inkscape:snap-midpoints="true"
     inkscape:window-width="1680"
     inkscape:window-height="995"
     inkscape:window-x="0"
     inkscape:window-y="27"
     inkscape:window-maximized="1"
     inkscape:showpageshadow="false"
     borderlayer="true"
     inkscape:snap-bbox="true"
     inkscape:snap-nodes="true"
     inkscape:bbox-paths="true"
     inkscape:bbox-nodes="true"
     inkscape:snap-bbox-edge-midpoints="false"
     inkscape:snap-bbox-midpoints="false"
     inkscape:snap-global="true"
     inkscape:snap-center="true">
    <inkscape:grid
       type="xygrid"
       id="grid3808"
       empspacing="4"
       visible="true"
       enabled="true"
       snapvisiblegridlinesonly="true" />
  </sodipodi:namedview>
  <metadata
     id="metadata7">
    <rdf:RDF>
      <cc:Work
         rdf:about="">
        <dc:format>image/svg+xml</dc:format>
        <dc:type
           rdf:resource="http://purl.org/dc/dcmitype/StillImage" />
        <dc:title />
      </cc:Work>
    </rdf:RDF>
  </metadata>
  <g
     inkscape:label="Layer 1"
     inkscape:groupmode="layer"
     id="layer1"
     transform="translate(0,-1004.3622)">
    <circle
       style="fill:#4d4d4d;fill-opacity:1;stroke:none"
       id="path3888"
       cx="24"
       cy="1028.3622"
       r="22" />
    <path
       style="opacity:1;fill:#ffffff;fill-opacity:0.1;fill-rule:nonzero;stroke:none;stroke-width:2;stroke-linecap:butt;stroke-linejoin:miter;stroke-miterlimit:4;stroke-dasharray:none;stroke-opacity:1"
       id="path4201"
       sodipodi:type="arc"
       sodipodi:cx="-534.9657"
       sodipodi:cy="-878.58777"
       sodipodi:rx="22"
       sodipodi:ry="22"
       sodipodi:start="0"
       sodipodi:end="0.78539816"
       d="m -512.9657,-878.58777 a 22,22 0 0 1 -6.44365,15.55635 l -15.55635,-15.55635 z"
       inkscape:transform-center-x="9.5262491"
       inkscape:transform-center-y="-10.625237"
       transform="matrix(-0.8660254,-0.5,0.5,-0.8660254,0,0)" />
    <path
       style="opacity:1;fill:#ffffff;fill-opacity:0.1;fill-rule:nonzero;stroke:none;stroke-width:2;stroke-linecap:butt;stroke-linejoin:miter;stroke-miterlimit:4;stroke-dasharray:none;stroke-opacity:1"
       id="path4201-7"
       sodipodi:type="arc"
       sodipodi:cx="534.9657"
       sodipodi:cy="878.58777"
       sodipodi:rx="22"
       sodipodi:ry="22"
       sodipodi:start="0"
       sodipodi:end="0.78539816"
       d="m 556.9657,878.58777 a 22,22 0 0 1 -6.44365,15.55635 L 534.9657,878.58777 Z"
       inkscape:transform-center-x="-9.5263094"
       inkscape:transform-center-y="10.625131"
       transform="matrix(0.8660254,0.5,-0.5,0.8660254,0,0)" />
    <circle
       cy="1028.3622"
       cx="24"
       style="fill:#626666;fill-opacity:1;stroke:none"
       id="path3888-0"
       r="8" />
    <circle
       cy="1028.3622"
       cx="24"
       style="fill:#80cbc4;fill-opacity:1;stroke:none"
       id="path3888-0-2"
       r="7" />
    <circle
       cy="1028.3622"
       cx="24"
       style="fill:#1a1a1a;fill-opacity:1;stroke:none"
       id="path3926"
       r="1" />
    <path
       style="fill:#ffffff;fill-opacity:0.2;stroke:none"
       d="m 31,1028.3622 c 0,-3 -3.134007,-6 -7,-6 -3.865993,0 -7,3 -7,6 0,-3.866 3.134007,-7 7,-7 3.865993,0 7,3.134 7,7 z"
       id="path3888-0-2-9"
       inkscape:connector-curvature="0"
       sodipodi:nodetypes="cscsc" />
    <path
       style="fill:#000000;fill-opacity:0.1;stroke:none"
       d="m 31,1028.3622 c 0,3 -3.134007,6 -7,6 -3.865993,0 -7,-3 -7,-6 0,3.866 3.134007,7 7,7 3.865993,0 7,-3.134 7,-7 z"
       id="path3888-0-2-9-6"
       inkscape:connector-curvature="0"
       sodipodi:nodetypes="cscsc" />
    <path
       style="opacity:1;fill:#f06292;fill-opacity:1;stroke:none;stroke-width:0.5;stroke-linecap:round;stroke-linejoin:round;stroke-miterlimit:4;stroke-dasharray:none;stroke-opacity:1"
       d="m 78.926452,1037.907 c -2.415382,0.4928 -6.134071,0.9267 -7.756461,1.0971 -1.62239,0.1706 -3.063932,0.9725 -2.443941,3.2863 0.619994,2.314 1.055297,5.254 1.32311,9.2773 -1.052353,-0.9024 -2.693949,-0.9857 -4.04916,-0.2055 -1.70627,0.9848 -2.390904,2.9935 -1.529103,4.4863 0.861756,1.4932 2.943845,1.9049 4.650004,0.9195 1.14911,-0.6649 1.879837,-1.833 1.896574,-3.0319 l 0.0035,0 c 0,-3.9612 -0.321965,-7.2341 -0.829788,-9.5324 -0.394753,-1.4733 0.228092,-2.1132 1.942709,-2.361 l 6.41596,-1.0692 c 1.149,-0.1917 1.839736,0.3689 2.224324,1.8043 0,0 0.385074,1.4467 0.463359,7.3355 -1.045158,-0.9641 -2.736376,-1.0754 -4.129273,-0.2716 -1.70627,0.9847 -2.390905,2.9934 -1.529104,4.4863 0.861756,1.4931 2.943846,1.9048 4.650004,0.9195 1.149111,-0.6649 1.879838,-1.8332 1.896575,-3.0322 l 0.0035,0 c 0.05242,-6.1108 0.01592,-9.7612 0.01044,-11.8426 -0.0054,-2.0813 -0.797812,-2.7586 -3.2132,-2.2657 z"
       id="path4326"
       inkscape:connector-curvature="0"
       sodipodi:nodetypes="czzcccccccccccccccczzc" />
    <path
       style="fill:#ffffff;fill-opacity:0.1;stroke:none"
       d="m 46,1028.3622 c 0,-11 -9.849736,-21 -22,-21 -12.150264,0 -22,10 -22,21 0,-12.1503 9.849736,-22 22,-22 12.150264,0 22,9.8497 22,22 z"
       id="path3888-5"
       inkscape:connector-curvature="0"
       sodipodi:nodetypes="cscsc" />
    <path
       style="fill:#000000;fill-opacity:0.2;stroke:none"
       d="m 46,1028.3622 c 0,11 -9.849736,21 -22,21 -12.150264,0 -22,-10 -22,-21 0,12.1503 9.849736,22 22,22 12.150264,0 22,-9.8497 22,-22 z"
       id="path3888-5-1"
       inkscape:connector-curvature="0"
       sodipodi:nodetypes="cscsc" />
    <circle
       style="fill:url(#linearGradient4326);fill-opacity:1;stroke:none"
       id="path3888-3"
       cx="24"
       cy="1028.3622"
       r="22" />
  </g>
</svg>
