<?xml version="1.0" encoding="UTF-8" standalone="no"?>
<!-- Created with Inkscape (http://www.inkscape.org/) -->

<svg
   xmlns:dc="http://purl.org/dc/elements/1.1/"
   xmlns:cc="http://creativecommons.org/ns#"
   xmlns:rdf="http://www.w3.org/1999/02/22-rdf-syntax-ns#"
   xmlns:svg="http://www.w3.org/2000/svg"
   xmlns="http://www.w3.org/2000/svg"
   xmlns:xlink="http://www.w3.org/1999/xlink"
   xmlns:sodipodi="http://sodipodi.sourceforge.net/DTD/sodipodi-0.dtd"
   xmlns:inkscape="http://www.inkscape.org/namespaces/inkscape"
   width="48"
   height="48"
   id="svg2"
   version="1.1"
   inkscape:version="0.91 r"
   sodipodi:docname="image-x-generic.svg"
   viewBox="0 0 48 48"
   inkscape:export-filename="/home/alexandros/Pictures/personal-icon-set/src/48/mimetypes/image-x-generic.png"
   inkscape:export-xdpi="90"
   inkscape:export-ydpi="90">
  <defs
     id="defs4">
    <linearGradient
       inkscape:collect="always"
       id="linearGradient4367">
      <stop
         style="stop-color:#efefec;stop-opacity:0.1"
         offset="0"
         id="stop4369" />
      <stop
         style="stop-color:#efefec;stop-opacity:0;"
         offset="1"
         id="stop4371" />
    </linearGradient>
    <inkscape:perspective
       sodipodi:type="inkscape:persp3d"
       inkscape:vp_x="0 : 12 : 1"
       inkscape:vp_y="0 : 1000 : 0"
       inkscape:vp_z="24 : 12 : 1"
       inkscape:persp3d-origin="12 : 8 : 1"
       id="perspective3810" />
    <radialGradient
       inkscape:collect="always"
       xlink:href="#linearGradient4367"
       id="radialGradient4373"
       cx="14.3125"
       cy="-40.375"
       fx="14.3125"
       fy="-40.375"
       r="22"
       gradientTransform="matrix(-1.85057e-8,1.4545455,-2,-2.5445336e-8,-78.749999,-12.818183)"
       gradientUnits="userSpaceOnUse" />
  </defs>
  <sodipodi:namedview
     id="base"
     pagecolor="#ffffff"
     bordercolor="#666666"
     borderopacity="1.0"
     inkscape:pageopacity="0.0"
     inkscape:pageshadow="2"
     inkscape:zoom="1"
     inkscape:cx="23.043856"
     inkscape:cy="30.03945"
     inkscape:document-units="px"
     inkscape:current-layer="layer4"
     showgrid="false"
     inkscape:snap-grids="true"
     inkscape:object-paths="true"
     inkscape:snap-intersection-paths="true"
     inkscape:snap-smooth-nodes="true"
     inkscape:object-nodes="true"
     inkscape:snap-midpoints="true"
     inkscape:window-width="1680"
     inkscape:window-height="995"
     inkscape:window-x="0"
     inkscape:window-y="27"
     inkscape:window-maximized="1"
     inkscape:showpageshadow="false"
     borderlayer="true"
     inkscape:snap-bbox="true"
     inkscape:snap-nodes="true"
     inkscape:bbox-paths="true"
     inkscape:bbox-nodes="true"
     inkscape:snap-bbox-edge-midpoints="false"
     inkscape:snap-bbox-midpoints="true">
    <inkscape:grid
       type="xygrid"
       id="grid3808"
       empspacing="4"
       visible="true"
       enabled="true"
       snapvisiblegridlinesonly="true" />
  </sodipodi:namedview>
  <metadata
     id="metadata7">
    <rdf:RDF>
      <cc:Work
         rdf:about="">
        <dc:format>image/svg+xml</dc:format>
        <dc:type
           rdf:resource="http://purl.org/dc/dcmitype/StillImage" />
        <dc:title />
      </cc:Work>
    </rdf:RDF>
  </metadata>
  <g
     inkscape:groupmode="layer"
     id="layer4"
     inkscape:label="lines"
     style="display:inline">
    <rect
       style="opacity:1;fill:#e5e4e0;fill-opacity:1;fill-rule:nonzero;stroke:none;stroke-width:1;stroke-linecap:butt;stroke-linejoin:miter;stroke-miterlimit:4;stroke-dasharray:none;stroke-opacity:1"
       id="rect4154"
       width="44"
       height="32"
       x="2"
       y="8"
       rx="3"
       ry="3" />
    <rect
       style="opacity:1;fill:#b3b3b3;fill-opacity:1;fill-rule:nonzero;stroke:none;stroke-width:1;stroke-linecap:butt;stroke-linejoin:miter;stroke-miterlimit:4;stroke-dasharray:none;stroke-opacity:1"
       id="rect4202"
       width="40"
       height="28"
       x="4"
       y="10"
       rx="360.79999"
       ry="0" />
    <path
       style="display:inline;opacity:1;fill:#f57f17;fill-opacity:1;fill-rule:nonzero;stroke:none;stroke-width:1;stroke-linecap:butt;stroke-linejoin:miter;stroke-miterlimit:4;stroke-dasharray:none;stroke-opacity:1"
       d="M 6 10 C 4.892 10 4 10.892 4 12 L 4 34.683594 A 33 33 0 0 0 6.0683594 38 L 42 38 C 43.108 38 44 37.108 44 36 L 44 12 C 44 10.892 43.108 10 42 10 L 6 10 z "
       id="path4219-6-9-7-1" />
    <path
       style="display:inline;opacity:1;fill:#f9a825;fill-opacity:1;fill-rule:nonzero;stroke:none;stroke-width:1;stroke-linecap:butt;stroke-linejoin:miter;stroke-miterlimit:4;stroke-dasharray:none;stroke-opacity:1"
       d="M 11.837891 10 A 23 23 0 0 0 10 19 A 23 23 0 0 0 20.042969 38 L 42 38 C 43.108 38 44 37.108 44 36 L 44 12 C 44 10.892 43.108 10 42 10 L 11.837891 10 z "
       id="path4219-6-9-7" />
    <path
       style="display:inline;opacity:1;fill:#fbc02d;fill-opacity:1;fill-rule:nonzero;stroke:none;stroke-width:1;stroke-linecap:butt;stroke-linejoin:miter;stroke-miterlimit:4;stroke-dasharray:none;stroke-opacity:1"
       d="M 21.023438 10 A 15 15 0 0 0 18 19 A 15 15 0 0 0 33 34 A 15 15 0 0 0 44 29.171875 L 44 12 C 44 10.892 43.108 10 42 10 L 21.023438 10 z "
       id="path4219-6-9" />
    <circle
       style="display:inline;opacity:1;fill:#fdd835;fill-opacity:1;fill-rule:nonzero;stroke:none;stroke-width:1;stroke-linecap:butt;stroke-linejoin:miter;stroke-miterlimit:4;stroke-dasharray:none;stroke-opacity:1"
       id="path4219-6"
       cx="33"
       cy="19"
       r="9" />
    <circle
       style="display:inline;opacity:1;fill:#fff258;fill-opacity:1;fill-rule:nonzero;stroke:none;stroke-width:1;stroke-linecap:butt;stroke-linejoin:miter;stroke-miterlimit:4;stroke-dasharray:none;stroke-opacity:1"
       id="path4219-4"
       cx="33"
       cy="19"
       r="5" />
    <path
       style="fill:#e53a38;fill-opacity:1;fill-rule:evenodd;stroke:none;stroke-width:1px;stroke-linecap:butt;stroke-linejoin:miter;stroke-opacity:1"
       d="M 15.181641 25.441406 C 8.6213379 25.358887 4 28 4 28 L 4 36 C 4 37.108 4.892 38 6 38 L 36 38 C 36 38 29 28 20 26 C 18.3125 25.625 16.695557 25.460449 15.181641 25.441406 z "
       id="path4390" />
    <path
       style="display:inline;fill:#ffffff;fill-opacity:0.1;fill-rule:evenodd;stroke:none;stroke-width:1px;stroke-linecap:butt;stroke-linejoin:miter;stroke-opacity:1"
       d="m 4,29 0,-1 c 0,0 7,-4 16,-2 9,2 16,12 16,12 0,0 -7,-9 -16,-11 -9,-2 -16,2 -16,2 z"
       id="path4390-0"
       inkscape:connector-curvature="0"
       sodipodi:nodetypes="ccsczc" />
    <path
       style="fill:#ff4d3f;fill-opacity:1;fill-rule:evenodd;stroke:none;stroke-width:1px;stroke-linecap:butt;stroke-linejoin:miter;stroke-opacity:1"
       d="M 44 24 C 36.142828 24 16.716303 27.862934 4.65625 37.474609 C 5.011332 37.798197 5.4795227 38 6 38 L 42 38 C 43.108 38 44 37.108 44 36 L 44 24 z "
       id="path4392" />
    <path
       style="display:inline;fill:#ffffff;fill-opacity:0.2;fill-rule:evenodd;stroke:none;stroke-width:1px;stroke-linecap:butt;stroke-linejoin:miter;stroke-opacity:1"
       d="M 44 24 C 36.142828 24 16.716303 27.862934 4.65625 37.474609 C 4.8180848 37.62209 5.0009653 37.747752 5.2050781 37.835938 C 17.215268 27.969626 36.04475 25 44 25 L 44 24 z "
       id="path4392-6" />
    <path
       style="display:inline;opacity:1;fill:#ffffff;fill-opacity:0.2;fill-rule:nonzero;stroke:none;stroke-width:1;stroke-linecap:butt;stroke-linejoin:miter;stroke-miterlimit:4;stroke-dasharray:none;stroke-opacity:1"
       d="m 38,19 c 0,-2 -2.238576,-4 -5,-4 -2.761424,0 -5,2 -5,4 0,-2.761424 2.238576,-5 5,-5 2.761424,0 5,2.238576 5,5 z"
       id="path4219-4-9"
       inkscape:connector-curvature="0"
       sodipodi:nodetypes="cscsc" />
    <path
       style="display:inline;opacity:1;fill:#000000;fill-opacity:0.1;fill-rule:nonzero;stroke:none;stroke-width:1;stroke-linecap:butt;stroke-linejoin:miter;stroke-miterlimit:4;stroke-dasharray:none;stroke-opacity:1"
       d="m 38,19 c 0,2 -2.238576,4 -5,4 -2.761424,0 -5,-2 -5,-4 0,2.761424 2.238576,5 5,5 2.761424,0 5,-2.238576 5,-5 z"
       id="path4219-4-9-9"
       inkscape:connector-curvature="0"
       sodipodi:nodetypes="cscsc" />
    <path
       style="display:inline;opacity:1;fill:#ffffff;fill-opacity:0.40000001;fill-rule:nonzero;stroke:none;stroke-width:1;stroke-linecap:butt;stroke-linejoin:miter;stroke-miterlimit:4;stroke-dasharray:none;stroke-opacity:1"
       d="m 5,8 38,0 c 1.662,0 3,1.338 3,3 C 46,10 45,9 43,9 32,9 20,9 5,9 3,9 2,10 2,11 2,9.338 3.338,8 5,8 Z"
       id="rect4154-2"
       inkscape:connector-curvature="0"
       sodipodi:nodetypes="sscsscs" />
    <path
       style="display:inline;opacity:1;fill:#333333;fill-opacity:0.2;fill-rule:nonzero;stroke:none;stroke-width:1;stroke-linecap:butt;stroke-linejoin:miter;stroke-miterlimit:4;stroke-dasharray:none;stroke-opacity:1"
       d="m 5,40 38,0 c 1.662,0 3,-1.338 3,-3 0,1 -1,2 -3,2 -11,0 -23,0 -38,0 -2,0 -3,-1 -3,-2 0,1.662 1.338,3 3,3 z"
       id="rect4154-2-6"
       inkscape:connector-curvature="0"
       sodipodi:nodetypes="sscsscs" />
    <path
       style="opacity:1;fill:#333333;fill-opacity:0.1;fill-rule:nonzero;stroke:none;stroke-width:1;stroke-linecap:butt;stroke-linejoin:miter;stroke-miterlimit:4;stroke-dasharray:none;stroke-opacity:1"
       d="m 6,10 36,0 c 1.108,0 2,0.892 2,2 0,-1 -1,-1 -2,-1 -9.883355,0 -24.369296,0 -36,0 -1,0 -2,0 -2,1 0,-1.108 0.892,-2 2,-2 z"
       id="rect4304"
       inkscape:connector-curvature="0"
       sodipodi:nodetypes="sscsscs" />
    <path
       style="display:inline;opacity:1;fill:#333333;fill-opacity:0.1;fill-rule:nonzero;stroke:none;stroke-width:1;stroke-linecap:butt;stroke-linejoin:miter;stroke-miterlimit:4;stroke-dasharray:none;stroke-opacity:1"
       d="m 4,12 0,24 c 0,1.108 0.892,2 2,2 C 5,38 5,37 5,36 L 5,12 c 0,-1 0,-2 1,-2 -1.108,0 -2,0.892 -2,2 z"
       id="rect4304-8"
       inkscape:connector-curvature="0"
       sodipodi:nodetypes="sscsscs" />
    <path
       style="display:inline;opacity:1;fill:#333333;fill-opacity:0.1;fill-rule:nonzero;stroke:none;stroke-width:1;stroke-linecap:butt;stroke-linejoin:miter;stroke-miterlimit:4;stroke-dasharray:none;stroke-opacity:1"
       d="m 44,36 0,-24 c 0,-1.108 -0.892,-2 -2,-2 1,0 1,1 1,2 l 0,24 c 0,1 0,2 -1,2 1.108,0 2,-0.892 2,-2 z"
       id="rect4304-8-5"
       inkscape:connector-curvature="0"
       sodipodi:nodetypes="sscsscs" />
    <path
       style="display:inline;opacity:1;fill:#ffffff;fill-opacity:0.2;fill-rule:nonzero;stroke:none;stroke-width:1;stroke-linecap:butt;stroke-linejoin:miter;stroke-miterlimit:4;stroke-dasharray:none;stroke-opacity:1"
       d="m 6,38 36,0 c 1.108,0 2,-0.892 2,-2 0,1 -1,1 -2,1 -9.883355,0 -24.369296,0 -36,0 -1,0 -2,0 -2,-1 0,1.108 0.892,2 2,2 z"
       id="rect4304-2"
       inkscape:connector-curvature="0"
       sodipodi:nodetypes="sscsscs" />
    <rect
       style="display:inline;opacity:1;fill:url(#radialGradient4373);fill-opacity:1;fill-rule:nonzero;stroke:none;stroke-width:1;stroke-linecap:butt;stroke-linejoin:miter;stroke-miterlimit:4;stroke-dasharray:none;stroke-opacity:1"
       id="rect4154-6"
       width="44"
       height="32"
       x="2"
       y="8"
       rx="3"
       ry="3" />
  </g>
  <g
     inkscape:label="base"
     inkscape:groupmode="layer"
     id="layer1"
     transform="translate(0,-1004.3622)"
     style="display:inline" />
  <g
     inkscape:groupmode="layer"
     id="layer6"
     inkscape:label="longshadow" />
  <g
     inkscape:groupmode="layer"
     id="layer5"
     inkscape:label="dropshadow" />
  <g
     inkscape:groupmode="layer"
     id="layer3"
     inkscape:label="symbol"
     style="display:inline" />
  <g
     inkscape:groupmode="layer"
     id="layer2"
     inkscape:label="tint&amp;shade"
     style="display:inline" />
  <g
     inkscape:groupmode="layer"
     id="layer7"
     inkscape:label="finish" />
</svg>
