<?xml version="1.0" encoding="UTF-8" standalone="no"?>
<!-- Created with Inkscape (http://www.inkscape.org/) -->

<svg
   xmlns:dc="http://purl.org/dc/elements/1.1/"
   xmlns:cc="http://creativecommons.org/ns#"
   xmlns:rdf="http://www.w3.org/1999/02/22-rdf-syntax-ns#"
   xmlns:svg="http://www.w3.org/2000/svg"
   xmlns="http://www.w3.org/2000/svg"
   xmlns:xlink="http://www.w3.org/1999/xlink"
   xmlns:sodipodi="http://sodipodi.sourceforge.net/DTD/sodipodi-0.dtd"
   xmlns:inkscape="http://www.inkscape.org/namespaces/inkscape"
   width="48"
   height="48"
   viewBox="0 0 48 48"
   id="svg2"
   version="1.1"
   inkscape:version="0.91 r"
   sodipodi:docname="package-x-generic.svg"
   inkscape:export-filename="/home/alexandros/Pictures/personal-icon-set/src/48/mimetypes/package-x-generic.png"
   inkscape:export-xdpi="90"
   inkscape:export-ydpi="90">
  <defs
     id="defs4">
    <linearGradient
       inkscape:collect="always"
       id="linearGradient4380">
      <stop
         style="stop-color:#d5bd9d;stop-opacity:0.1"
         offset="0"
         id="stop4382" />
      <stop
         style="stop-color:#d5bd9d;stop-opacity:0;"
         offset="1"
         id="stop4384" />
    </linearGradient>
    <linearGradient
       inkscape:collect="always"
       id="linearGradient4329">
      <stop
         style="stop-color:#333333;stop-opacity:0.1"
         offset="0"
         id="stop4331" />
      <stop
         style="stop-color:#333333;stop-opacity:0;"
         offset="1"
         id="stop4333" />
    </linearGradient>
    <filter
       style="color-interpolation-filters:sRGB"
       inkscape:label="Drop Shadow"
       id="filter4630">
      <feFlood
         flood-opacity="1"
         flood-color="rgb(0,0,0)"
         result="flood"
         id="feFlood4632" />
      <feComposite
         in="flood"
         in2="SourceGraphic"
         operator="in"
         result="composite1"
         id="feComposite4634" />
      <feGaussianBlur
         in="composite1"
         stdDeviation="0.5"
         result="blur"
         id="feGaussianBlur4636" />
      <feOffset
         dx="0"
         dy="0.5"
         result="offset"
         id="feOffset4638" />
      <feComposite
         in="SourceGraphic"
         in2="offset"
         operator="over"
         result="composite2"
         id="feComposite4640" />
    </filter>
    <linearGradient
       inkscape:collect="always"
       xlink:href="#linearGradient4329"
       id="linearGradient4335"
       x1="2.5467086"
       y1="1027.226"
       x2="19.683056"
       y2="1044.3623"
       gradientUnits="userSpaceOnUse" />
    <radialGradient
       inkscape:collect="always"
       xlink:href="#linearGradient4380"
       id="radialGradient4386"
       cx="63.098537"
       cy="1010.5866"
       fx="63.098537"
       fy="1010.5866"
       r="22.025597"
       gradientTransform="matrix(8.6388817e-8,1.452855,-2.0090254,1.1945949e-7,2032.2686,920.68903)"
       gradientUnits="userSpaceOnUse" />
  </defs>
  <sodipodi:namedview
     id="base"
     pagecolor="#ffffff"
     bordercolor="#666666"
     borderopacity="1.0"
     inkscape:pageopacity="0"
     inkscape:pageshadow="2"
     inkscape:zoom="5.6568542"
     inkscape:cx="79.013616"
     inkscape:cy="2.940778"
     inkscape:document-units="px"
     inkscape:current-layer="layer1"
     showgrid="false"
     units="px"
     inkscape:window-width="1680"
     inkscape:window-height="995"
     inkscape:window-x="0"
     inkscape:window-y="27"
     inkscape:window-maximized="1"
     inkscape:showpageshadow="false"
     showguides="false"
     inkscape:object-paths="true"
     inkscape:snap-intersection-paths="true"
     inkscape:object-nodes="true"
     inkscape:snap-smooth-nodes="true"
     inkscape:snap-midpoints="false"
     inkscape:snap-global="true"
     inkscape:snap-grids="true"
     inkscape:snap-bbox="true"
     inkscape:bbox-nodes="true"
     inkscape:bbox-paths="true">
    <inkscape:grid
       type="xygrid"
       id="grid4140"
       empspacing="4"
       visible="true" />
  </sodipodi:namedview>
  <metadata
     id="metadata7">
    <rdf:RDF>
      <cc:Work
         rdf:about="">
        <dc:format>image/svg+xml</dc:format>
        <dc:type
           rdf:resource="http://purl.org/dc/dcmitype/StillImage" />
        <dc:title />
      </cc:Work>
    </rdf:RDF>
  </metadata>
  <g
     inkscape:label="Laag 1"
     inkscape:groupmode="layer"
     id="layer1"
     transform="translate(0,-1004.3622)">
    <path
       style="opacity:1;fill:#bd9867;fill-opacity:1;stroke:none;stroke-width:0;stroke-linecap:butt;stroke-linejoin:miter;stroke-miterlimit:0;stroke-dasharray:none;stroke-opacity:1"
       d="m 7.0008921,1012.3622 c -1.662,0 -3,1.338 -3,3 l 0,26.0001 c 0,1.662 1.338,3 3,3 l 33.9999999,0 c 1.662,0 3,-1.338 3,-3 l 0,-26.0001 c 0,-1.662 -1.338,-3 -3,-3 z"
       id="rect4151"
       inkscape:connector-curvature="0"
       sodipodi:nodetypes="csssssscc" />
    <g
       id="g4287"
       transform="matrix(0.01140968,0,0,0.01140968,32.831823,1032.3622)"
       style="fill:#333333;fill-opacity:0.4">
      <g
         id="g4289"
         style="fill:#333333;fill-opacity:0.4">
        <g
           id="g4291"
           style="fill:#333333;fill-opacity:0.4">
          <g
             id="g4293"
             style="fill:#333333;fill-opacity:0.4">
            <path
               id="path4295"
               d="m 99.777,446.086 c -6.699,12.031 -12.031,30.133 -12.031,41.539 0,2.648 0,6.016 0.656,10.688 L 4.676,354.32 C 1.996,349.648 0,342.945 0,336.906 0,330.859 1.996,323.508 4.676,318.828 L 44.871,248.5 0,223.07 146.016,220.367 217,348.281 171.473,322.164 99.777,446.086 Z M 164.09,40.227 c 12.715,-22.125 33.496,-34.18 58.926,-34.18 27.48,0 48.918,12.742 64.312,38.828 L 310.105,83.047 231.054,219.711 103.14,145.359 164.09,40.227 Z m 9.351,521.718 c -38.172,0 -69.645,-31.477 -69.645,-69.648 0,-10.719 4.703,-28.82 11.402,-40.195 l 21.41,-38.172 158.758,0 0,148.016 -121.925,0 z M 300.727,36.18 C 290.691,18.789 277.293,6.703 261.215,0 l 164.746,0 c 14.738,0 26.113,6.047 32.84,17.445 l 40.852,69.648 44.191,-26.141 -71.016,127.281 -145.305,-2.047 44.871,-25.43 L 300.727,36.18 Z M 554.59,415.273 c 20.07,0 36.832,-5.359 50.887,-16.055 l -83.07,144.648 c -6.699,11.375 -18.73,18.078 -32.789,18.078 l -78.395,0 0,51.57 -75.004,-125.234 75.004,-125.266 0,52.258 143.367,0 z m 64.258,-120.562 c 6.043,10.719 9.406,22.094 9.406,34.156 0,24.117 -15.422,49.57 -36.832,61.602 -10.062,5.391 -24.145,8.75 -38.172,8.75 l -44.242,0 -79,-136.664 127.918,-73.008 60.922,105.164 z"
               inkscape:connector-curvature="0"
               style="fill:#333333;fill-opacity:0.4" />
          </g>
        </g>
      </g>
    </g>
    <path
       style="opacity:1;fill:#333333;fill-opacity:0.2;stroke:none;stroke-width:0;stroke-linecap:butt;stroke-linejoin:miter;stroke-miterlimit:0;stroke-dasharray:none;stroke-opacity:1"
       d="m 7.0008921,1044.3623 c -1.6009842,0 -2.997235,-1.2702 -2.997235,-3 0,1 1.4417967,2 3,2 l 33.9999989,0 c 1.525165,0 3,-1 3,-2 0,1.6325 -1.304952,3.0001 -3,3.0001 z"
       id="rect4155-6"
       inkscape:connector-curvature="0"
       sodipodi:nodetypes="ccssccc" />
    <g
       id="g4190">
      <rect
         ry="1.0000174"
         rx="1.0000174"
         y="1032.3622"
         x="8"
         height="7.0000172"
         width="10"
         id="rect4265"
         style="opacity:1;fill:#ffffff;fill-opacity:0.8;fill-rule:nonzero;stroke:none;stroke-width:1;stroke-linecap:butt;stroke-linejoin:miter;stroke-miterlimit:4;stroke-dasharray:none;stroke-opacity:1" />
      <rect
         ry="0"
         rx="0"
         y="1033.3622"
         x="9"
         height="1.0000174"
         width="7"
         id="rect4269"
         style="opacity:1;fill:#999999;fill-opacity:1;fill-rule:nonzero;stroke:none;stroke-width:1;stroke-linecap:butt;stroke-linejoin:miter;stroke-miterlimit:4;stroke-dasharray:none;stroke-opacity:1" />
      <rect
         ry="0"
         rx="0"
         y="1035.3622"
         x="9"
         height="1.0000174"
         width="4"
         id="rect4269-3"
         style="opacity:1;fill:#999999;fill-opacity:1;fill-rule:nonzero;stroke:none;stroke-width:1;stroke-linecap:butt;stroke-linejoin:miter;stroke-miterlimit:4;stroke-dasharray:none;stroke-opacity:1" />
      <rect
         ry="0"
         rx="0"
         y="1037.3622"
         x="9"
         height="1.0000174"
         width="6"
         id="rect4267"
         style="opacity:1;fill:#999999;fill-opacity:1;fill-rule:nonzero;stroke:none;stroke-width:1;stroke-linecap:butt;stroke-linejoin:miter;stroke-miterlimit:4;stroke-dasharray:none;stroke-opacity:1" />
    </g>
    <path
       style="fill:url(#linearGradient4335);fill-opacity:1;fill-rule:evenodd;stroke:none;stroke-width:1px;stroke-linecap:butt;stroke-linejoin:miter;stroke-opacity:1"
       d="M 2.5467086,1027.226 19.683058,1044.3623 40,1044.3622 l 4,-4 0,-13 -40,0 z"
       id="path4327"
       inkscape:connector-curvature="0"
       sodipodi:nodetypes="ccccccc" />
    <g
       id="g4347">
      <path
         sodipodi:nodetypes="csssscc"
         inkscape:connector-curvature="0"
         id="rect4151-5"
         d="m 4.0008921,1012.3621 -2,13 c -0.252719,1.6427 1.338001,3 3,3 l 37.9999999,0 c 1.662,0 3.242885,-1.4212 3,-3 l -2,-13 z"
         style="opacity:1;fill:#bd9867;fill-opacity:1;stroke:none;stroke-width:0;stroke-linecap:butt;stroke-linejoin:miter;stroke-miterlimit:0;stroke-dasharray:none;stroke-opacity:1" />
      <path
         sodipodi:nodetypes="csssscc"
         inkscape:connector-curvature="0"
         id="rect4151-5-5"
         d="m 4.0008922,1012.3622 -2,13 c -0.252719,1.6427 1.338001,3 2.9999997,3 l 38.0000001,0 c 1.662,0 3.242885,-1.4212 3,-3 l -2,-13 z"
         style="opacity:1;fill:#ffffff;fill-opacity:0.2;stroke:none;stroke-width:0;stroke-linecap:butt;stroke-linejoin:miter;stroke-miterlimit:0;stroke-dasharray:none;stroke-opacity:1" />
    </g>
    <path
       style="fill:#ffffff;fill-rule:evenodd;stroke:none;stroke-width:1px;stroke-linecap:butt;stroke-linejoin:miter;stroke-opacity:1;fill-opacity:0.2"
       d="m 4,1012.3622 40,0 0.154424,0.998 -40.3070792,0 z"
       id="path4351"
       inkscape:connector-curvature="0" />
    <path
       style="opacity:1;fill:#333333;fill-opacity:0.1;stroke:none;stroke-width:0;stroke-linecap:butt;stroke-linejoin:miter;stroke-miterlimit:0;stroke-dasharray:none;stroke-opacity:1"
       d="m 2.0008921,1025.3621 c -0.252719,1.6427 1.338001,3 3,3 l 37.9999999,0 c 1.662,0 3.242885,-1.4212 3,-3 C 46,1026.3622 45,1027.3622 43,1027.3622 c -13.503762,0 -25.855718,0 -38.0215231,0 -1.9784769,0 -2.9784769,-1 -2.9775848,-2.0001 z"
       id="rect4151-5-4"
       inkscape:connector-curvature="0"
       sodipodi:nodetypes="csscssc" />
    <path
       style="opacity:1;fill:url(#radialGradient4386);fill-opacity:1;stroke:none;stroke-width:0;stroke-linecap:butt;stroke-linejoin:miter;stroke-miterlimit:0;stroke-dasharray:none;stroke-opacity:1"
       d="m 4.0008921,1012.3622 -2,13 c -0.200514,1.3034 0.764691,2.4136 2,2.8223 l 0,13.1777 c 0,1.662 1.338,3 3,3 l 33.9999999,0 c 1.662,0 3,-1.338 3,-3 l 0,-13.1836 c 1.23337,-0.4229 2.19275,-1.5635 2,-2.8164 l -2,-13 -36.9999999,0 -3,0 z"
       id="rect4151-8"
       inkscape:connector-curvature="0" />
  </g>
</svg>
