<?xml version="1.0" encoding="UTF-8" standalone="no"?>
<!-- Created with Inkscape (http://www.inkscape.org/) -->

<svg
   xmlns:dc="http://purl.org/dc/elements/1.1/"
   xmlns:cc="http://creativecommons.org/ns#"
   xmlns:rdf="http://www.w3.org/1999/02/22-rdf-syntax-ns#"
   xmlns:svg="http://www.w3.org/2000/svg"
   xmlns="http://www.w3.org/2000/svg"
   xmlns:xlink="http://www.w3.org/1999/xlink"
   xmlns:sodipodi="http://sodipodi.sourceforge.net/DTD/sodipodi-0.dtd"
   xmlns:inkscape="http://www.inkscape.org/namespaces/inkscape"
   width="48"
   height="48"
   id="svg2"
   version="1.1"
   inkscape:version="0.91 r"
   sodipodi:docname="folder-videos.svg"
   viewBox="0 0 48 48"
   inkscape:export-filename="/home/alexandros/Pictures/personal-icon-set/folder-videos.png"
   inkscape:export-xdpi="90"
   inkscape:export-ydpi="90">
  <defs
     id="defs4">
    <linearGradient
       inkscape:collect="always"
       id="linearGradient4184">
      <stop
         style="stop-color:#7d89ca;stop-opacity:0.2"
         offset="0"
         id="stop4186" />
      <stop
         style="stop-color:#7d89ca;stop-opacity:0"
         offset="1"
         id="stop4188" />
    </linearGradient>
    <inkscape:perspective
       sodipodi:type="inkscape:persp3d"
       inkscape:vp_x="0 : 12 : 1"
       inkscape:vp_y="0 : 1000 : 0"
       inkscape:vp_z="24 : 12 : 1"
       inkscape:persp3d-origin="12 : 8 : 1"
       id="perspective3810" />
    <linearGradient
       x1="30.983868"
       y1="18.073921"
       x2="28.669958"
       y2="14.200939"
       id="linearGradient-5"
       gradientTransform="matrix(1.2909944,0,0,0.77459667,-2.8751849,1.3153701)"
       gradientUnits="userSpaceOnUse">
      <stop
         stop-color="#2121FF"
         stop-opacity="0"
         offset="0%"
         id="stop73" />
      <stop
         stop-color="#212121"
         stop-opacity="0.195482337"
         offset="100%"
         id="stop75" />
    </linearGradient>
    <radialGradient
       inkscape:collect="always"
       xlink:href="#linearGradient4184"
       id="radialGradient4190"
       cx="-63.51046"
       cy="-9.7604599"
       fx="-63.51046"
       fy="-9.7604599"
       r="22.01046"
       gradientTransform="matrix(-5.8265451e-8,1.635586,-2,-3.4672146e-8,-17.531383,109.87682)"
       gradientUnits="userSpaceOnUse" />
  </defs>
  <sodipodi:namedview
     id="base"
     pagecolor="#ffffff"
     bordercolor="#666666"
     borderopacity="1.0"
     inkscape:pageopacity="0.0"
     inkscape:pageshadow="2"
     inkscape:zoom="32"
     inkscape:cx="17.104087"
     inkscape:cy="33.399743"
     inkscape:document-units="px"
     inkscape:current-layer="layer4"
     showgrid="false"
     inkscape:snap-grids="true"
     inkscape:object-paths="true"
     inkscape:snap-intersection-paths="true"
     inkscape:snap-smooth-nodes="true"
     inkscape:object-nodes="true"
     inkscape:snap-midpoints="false"
     inkscape:window-width="1680"
     inkscape:window-height="995"
     inkscape:window-x="0"
     inkscape:window-y="27"
     inkscape:window-maximized="1"
     inkscape:showpageshadow="false"
     borderlayer="true"
     inkscape:snap-bbox="true"
     inkscape:snap-nodes="true"
     inkscape:bbox-paths="true"
     inkscape:bbox-nodes="true"
     inkscape:snap-bbox-edge-midpoints="false"
     inkscape:snap-bbox-midpoints="false">
    <inkscape:grid
       type="xygrid"
       id="grid3808"
       empspacing="4"
       visible="true"
       enabled="true"
       snapvisiblegridlinesonly="true" />
  </sodipodi:namedview>
  <metadata
     id="metadata7">
    <rdf:RDF>
      <cc:Work
         rdf:about="">
        <dc:format>image/svg+xml</dc:format>
        <dc:type
           rdf:resource="http://purl.org/dc/dcmitype/StillImage" />
        <dc:title />
      </cc:Work>
    </rdf:RDF>
  </metadata>
  <g
     inkscape:groupmode="layer"
     id="layer4"
     inkscape:label="lines"
     style="display:inline">
    <path
       style="opacity:1;fill:#4a5596;fill-opacity:1;fill-rule:nonzero;stroke:none;stroke-width:1;stroke-linecap:butt;stroke-linejoin:miter;stroke-miterlimit:4;stroke-dasharray:none;stroke-opacity:1"
       d="M 7.0000001,6 20,6 l 4,4 17,0 c 1.662,0 3,1.338 3,3 l 0,26 c 0,1.662 -1.338,3 -3,3 L 7.0000002,42 c -1.662,0 -3,-1.338 -3,-3 l 0,-30 c 0,-1.662 1.338,-3 3,-3 z"
       id="rect4154"
       inkscape:connector-curvature="0"
       sodipodi:nodetypes="sccssssssss" />
    <path
       style="display:inline;opacity:1;fill:#ffffff;fill-opacity:0.1;fill-rule:nonzero;stroke:none;stroke-width:1;stroke-linecap:butt;stroke-linejoin:miter;stroke-miterlimit:4;stroke-dasharray:none;stroke-opacity:1"
       d="M 7.0000001,6 20,6 l 4,4 17,0 c 1.662,0 3,1.338 3,3 0,-1 -1,-2 -3,-2 L 24,11 20,7 7.0000001,7 c -2,0 -3,1 -3,2 0,-1.662 1.338,-3 3,-3 z"
       id="rect4154-4-8"
       inkscape:connector-curvature="0"
       sodipodi:nodetypes="sccscsccccs" />
    <rect
       style="opacity:0.98999999;fill:#333333;fill-opacity:0.1;fill-rule:nonzero;stroke:none;stroke-width:1;stroke-linecap:butt;stroke-linejoin:miter;stroke-miterlimit:4;stroke-dasharray:none;stroke-opacity:1"
       id="rect4339"
       width="40"
       height="2"
       x="4"
       y="13"
       rx="1"
       ry="1" />
    <path
       style="opacity:1;fill:#5d6bbd;fill-opacity:1;fill-rule:nonzero;stroke:none;stroke-width:1;stroke-linecap:butt;stroke-linejoin:miter;stroke-miterlimit:4;stroke-dasharray:none;stroke-opacity:1"
       d="M 5.0000001,14 43,14 c 1.662,0 3.15047,1.344825 3,3 l -2,22 c -0.15047,1.655175 -1.338,3 -3,3 L 7.0000001,42 c -1.662,0 -2.8495295,-1.344825 -3,-3 l -2,-22 c -0.1504705,-1.655175 1.338,-3 3,-3 z"
       id="rect4156"
       inkscape:connector-curvature="0"
       sodipodi:nodetypes="sssssssss" />
    <path
       style="display:inline;opacity:0.98999999;fill:#ffffff;fill-opacity:0.2;fill-rule:nonzero;stroke:none;stroke-width:1;stroke-linecap:butt;stroke-linejoin:miter;stroke-miterlimit:4;stroke-dasharray:none;stroke-opacity:1"
       d="M 5.0000001,14 43,14 c 1.662,0 3.15047,1.344825 3,3 0,-1 -1,-2 -3,-2 -12.578897,0 -29,0 -37.9999999,0 -2,0 -3,1 -3,2 -0.150471,-1.655175 1.338,-3 3,-3 z"
       id="rect4156-2-6"
       inkscape:connector-curvature="0"
       sodipodi:nodetypes="sscsscs" />
    <path
       style="display:inline;opacity:1;fill:#333333;fill-opacity:0.2;fill-rule:nonzero;stroke:none;stroke-width:1;stroke-linecap:butt;stroke-linejoin:miter;stroke-miterlimit:4;stroke-dasharray:none;stroke-opacity:1"
       d="m 44,39 c -0.15047,1.655175 -1.338,3 -3,3 L 7.0000002,42 c -1.662,0 -2.849529,-1.344825 -3,-3 0.267949,1 1,2 3,2 C 17.655935,41 33.274697,41 41,41 c 2,0 2.732051,-1 3,-2 z"
       id="rect4156-2-2"
       inkscape:connector-curvature="0"
       sodipodi:nodetypes="csscssc" />
    <path
       style="fill:#48528c;fill-opacity:1;fill-rule:evenodd;stroke:none;stroke-width:1px;stroke-linecap:butt;stroke-linejoin:miter;stroke-opacity:1"
       d="m 19,21 11,7 -11,7 z"
       id="path4156"
       inkscape:connector-curvature="0"
       sodipodi:nodetypes="cccc" />
    <path
       style="display:inline;fill:#333333;fill-opacity:0.2;fill-rule:evenodd;stroke:none;stroke-width:1px;stroke-linecap:butt;stroke-linejoin:miter;stroke-opacity:1"
       d="M 19,21 30,28 29,28 19.761758,22.457055 19,23 Z"
       id="path4156-2"
       inkscape:connector-curvature="0"
       sodipodi:nodetypes="cccccc" />
    <path
       style="display:inline;opacity:1;fill:url(#radialGradient4190);fill-opacity:1;fill-rule:nonzero;stroke:none;stroke-width:1;stroke-linecap:butt;stroke-linejoin:miter;stroke-miterlimit:4;stroke-dasharray:none;stroke-opacity:1"
       d="m 7.0000001,6 c -1.662,0 -3,1.338 -3,3 l 0,5.177735 c -1.207276,0.40855 -2.119064,1.512557 -2,2.822266 l 2,22 c 0,1.456241 1.02806,2.662791 2.400391,2.939453 0.191824,0.04001 0.391859,0.06055 0.599609,0.06055 L 41,42.000001 c 0.20775,0 0.407785,-0.02054 0.599609,-0.06055 C 42.97194,41.662792 44,40.456242 44,39.000001 l 2,-22 c 0.119064,-1.309709 -0.792724,-2.413716 -2,-2.822266 l 0,-1.177734 C 44,11.338001 42.662,10 41,10 L 24,10 20,6 7.0000001,6 Z"
       id="rect4154-1"
       inkscape:connector-curvature="0" />
  </g>
  <g
     inkscape:label="base"
     inkscape:groupmode="layer"
     id="layer1"
     transform="translate(0,-1004.3622)"
     style="display:inline" />
  <g
     inkscape:groupmode="layer"
     id="layer6"
     inkscape:label="longshadow" />
  <g
     inkscape:groupmode="layer"
     id="layer5"
     inkscape:label="dropshadow" />
  <g
     inkscape:groupmode="layer"
     id="layer3"
     inkscape:label="symbol"
     style="display:inline" />
  <g
     inkscape:groupmode="layer"
     id="layer2"
     inkscape:label="tint&amp;shade"
     style="display:inline" />
  <g
     inkscape:groupmode="layer"
     id="layer7"
     inkscape:label="finish" />
</svg>
