<?xml version="1.0" encoding="UTF-8" standalone="no"?>
<!-- Created with Inkscape (http://www.inkscape.org/) -->

<svg
   xmlns:dc="http://purl.org/dc/elements/1.1/"
   xmlns:cc="http://creativecommons.org/ns#"
   xmlns:rdf="http://www.w3.org/1999/02/22-rdf-syntax-ns#"
   xmlns:svg="http://www.w3.org/2000/svg"
   xmlns="http://www.w3.org/2000/svg"
   xmlns:xlink="http://www.w3.org/1999/xlink"
   xmlns:sodipodi="http://sodipodi.sourceforge.net/DTD/sodipodi-0.dtd"
   xmlns:inkscape="http://www.inkscape.org/namespaces/inkscape"
   width="48"
   height="48"
   id="svg2"
   version="1.1"
   inkscape:version="0.91 r"
   sodipodi:docname="books48.svg"
   viewBox="0 0 48 48"
   inkscape:export-filename="/home/alexandros/Pictures/personal-icon-set/books48.png"
   inkscape:export-xdpi="90"
   inkscape:export-ydpi="90">
  <defs
     id="defs4">
    <linearGradient
       inkscape:collect="always"
       id="linearGradient4168">
      <stop
         style="stop-color:#333333;stop-opacity:0.1"
         offset="0"
         id="stop4170" />
      <stop
         style="stop-color:#333333;stop-opacity:0"
         offset="1"
         id="stop4172" />
    </linearGradient>
    <linearGradient
       inkscape:collect="always"
       id="linearGradient4243">
      <stop
         style="stop-color:#71c5bd;stop-opacity:0.1"
         offset="0"
         id="stop4245" />
      <stop
         style="stop-color:#f5f1f1;stop-opacity:0"
         offset="1"
         id="stop4247" />
    </linearGradient>
    <inkscape:perspective
       sodipodi:type="inkscape:persp3d"
       inkscape:vp_x="0 : 12 : 1"
       inkscape:vp_y="0 : 1000 : 0"
       inkscape:vp_z="24 : 12 : 1"
       inkscape:persp3d-origin="12 : 8 : 1"
       id="perspective3810" />
    <linearGradient
       inkscape:collect="always"
       xlink:href="#linearGradient4168"
       id="linearGradient4174"
       x1="34"
       y1="1019.3622"
       x2="39"
       y2="1024.3622"
       gradientUnits="userSpaceOnUse" />
    <radialGradient
       inkscape:collect="always"
       xlink:href="#linearGradient4243"
       id="radialGradient4176"
       cx="-52.623978"
       cy="999.29108"
       fx="-52.623978"
       fy="999.29108"
       r="22"
       gradientTransform="matrix(-2.279261e-8,1.6363626,-2,-2.7857652e-8,2000.5712,1096.4633)"
       gradientUnits="userSpaceOnUse" />
  </defs>
  <sodipodi:namedview
     id="base"
     pagecolor="#ffffff"
     bordercolor="#666666"
     borderopacity="1.0"
     inkscape:pageopacity="0.0"
     inkscape:pageshadow="2"
     inkscape:zoom="5.656854"
     inkscape:cx="-9.3684293"
     inkscape:cy="-5.356018"
     inkscape:document-units="px"
     inkscape:current-layer="layer1"
     showgrid="false"
     inkscape:snap-grids="true"
     inkscape:object-paths="true"
     inkscape:snap-intersection-paths="true"
     inkscape:snap-smooth-nodes="true"
     inkscape:object-nodes="true"
     inkscape:snap-midpoints="true"
     inkscape:window-width="1680"
     inkscape:window-height="995"
     inkscape:window-x="0"
     inkscape:window-y="27"
     inkscape:window-maximized="1"
     inkscape:showpageshadow="false"
     borderlayer="true"
     inkscape:snap-bbox="true"
     inkscape:snap-nodes="true"
     inkscape:bbox-paths="false"
     inkscape:bbox-nodes="true"
     inkscape:snap-bbox-edge-midpoints="false"
     inkscape:snap-bbox-midpoints="false">
    <inkscape:grid
       type="xygrid"
       id="grid3808"
       empspacing="4"
       visible="true"
       enabled="true"
       snapvisiblegridlinesonly="true" />
  </sodipodi:namedview>
  <metadata
     id="metadata7">
    <rdf:RDF>
      <cc:Work
         rdf:about="">
        <dc:format>image/svg+xml</dc:format>
        <dc:type
           rdf:resource="http://purl.org/dc/dcmitype/StillImage" />
        <dc:title />
      </cc:Work>
    </rdf:RDF>
  </metadata>
  <g
     inkscape:label="Layer 1"
     inkscape:groupmode="layer"
     id="layer1"
     transform="translate(0,-1004.3622)">
    <path
       style="opacity:1;fill:#4db6ac;fill-opacity:1;stroke:none;stroke-width:0.1;stroke-linecap:round;stroke-linejoin:round;stroke-miterlimit:4;stroke-dasharray:none;stroke-opacity:1"
       d="m 5,1012.3622 38,0 c 1.662,0 3,1.338 3,3 l 0,28 c 0,1.662 -1.338,3 -3,3 l -38,0 c -1.662,0 -3,-1.338 -3,-3 l 0,-28 c 0,-1.662 1.338,-3 3,-3 z"
       id="rect4135"
       inkscape:connector-curvature="0"
       sodipodi:nodetypes="sssssssss" />
    <rect
       style="opacity:1;fill:#333333;fill-opacity:0.1;stroke:none;stroke-width:0.1;stroke-linecap:round;stroke-linejoin:round;stroke-miterlimit:4;stroke-dasharray:none;stroke-opacity:1"
       id="rect4137-29"
       width="40"
       height="32.000019"
       x="4"
       y="1012.3621"
       rx="3"
       ry="3" />
    <rect
       style="opacity:1;fill:#b2b2b2;fill-opacity:1;stroke:none;stroke-width:0.1;stroke-linecap:round;stroke-linejoin:round;stroke-miterlimit:4;stroke-dasharray:none;stroke-opacity:1"
       id="rect4137"
       width="40"
       height="32.000019"
       x="4"
       y="1011.3622"
       rx="3"
       ry="3" />
    <rect
       style="opacity:1;fill:#cccccc;fill-opacity:1;stroke:none;stroke-width:0.1;stroke-linecap:round;stroke-linejoin:round;stroke-miterlimit:4;stroke-dasharray:none;stroke-opacity:1"
       id="rect4137-2"
       width="40"
       height="31.000017"
       x="4"
       y="1011.3622"
       rx="3"
       ry="3" />
    <path
       style="opacity:1;fill:#ffffff;fill-opacity:0.2;stroke:none;stroke-width:0.1;stroke-linecap:round;stroke-linejoin:round;stroke-miterlimit:4;stroke-dasharray:none;stroke-opacity:1"
       d="m 5,1012.3622 38,0 c 1.662,0 3,1.338 3,3 0,-1 -1,-2 -3,-2 l -38,0 c -2,0 -3,1 -3,2 0,-1.662 1.338,-3 3,-3 z"
       id="rect4135-3"
       inkscape:connector-curvature="0"
       sodipodi:nodetypes="sscsscs" />
    <path
       style="opacity:1;fill:#333333;fill-opacity:0.2;stroke:none;stroke-width:0.1;stroke-linecap:round;stroke-linejoin:round;stroke-miterlimit:4;stroke-dasharray:none;stroke-opacity:1"
       d="m 5,1046.3622 38,0 c 1.662,0 3,-1.338 3,-3 0,1 -1,2 -3,2 l -37.9999999,0 c -2.0000001,0 -3,-1 -3,-2 0,1.662 1.338,3 2.9999999,3 z"
       id="rect4135-3-2"
       inkscape:connector-curvature="0"
       sodipodi:nodetypes="sscsscs" />
    <path
       inkscape:connector-curvature="0"
       style="opacity:1;fill:#f2eded;fill-opacity:1;stroke:none;stroke-width:0.1;stroke-linecap:round;stroke-linejoin:round;stroke-miterlimit:4;stroke-dasharray:none;stroke-opacity:1"
       d="m 24,1010.3622 17,0 c 1.662,0 3,1.338 3,3 l 0,25 c 0,1.662 -1.338,3 -3,3 l -17,0"
       id="path4212"
       sodipodi:nodetypes="cssssc" />
    <path
       inkscape:connector-curvature="0"
       style="opacity:1;fill:#e5e1e1;fill-opacity:1;stroke:none;stroke-width:0.1;stroke-linecap:round;stroke-linejoin:round;stroke-miterlimit:4;stroke-dasharray:none;stroke-opacity:1"
       d="m 24,1041.3622 -17,0 c -1.662,0 -3,-1.338 -3,-3 l 0,-25 c 0,-1.662 1.338,-3 3,-3 l 17,0"
       id="rect4137-3"
       sodipodi:nodetypes="cssssc" />
    <path
       style="fill:url(#linearGradient4174);fill-opacity:1;fill-rule:evenodd;stroke:none;stroke-width:1px;stroke-linecap:butt;stroke-linejoin:miter;stroke-opacity:1"
       d="m 32,1021.3622 12,12 0,-15 -8,-8 z"
       id="path4282"
       inkscape:connector-curvature="0"
       sodipodi:nodetypes="ccccc" />
    <path
       style="fill:#ef5350;fill-opacity:1;fill-rule:evenodd;stroke:none;stroke-width:1px;stroke-linecap:butt;stroke-linejoin:miter;stroke-opacity:1"
       d="m 32,1010.3622 0,11 2,-2 2,2 0,-11 z"
       id="path4282-4"
       inkscape:connector-curvature="0"
       sodipodi:nodetypes="cccccc" />
    <path
       style="opacity:1;fill:url(#radialGradient4176);fill-opacity:1;stroke:none;stroke-width:0.1;stroke-linecap:round;stroke-linejoin:round;stroke-miterlimit:4;stroke-dasharray:none;stroke-opacity:1"
       d="m 6.9891022,1010.3513 c -1.360149,0 -2.490957,0.9022 -2.861328,2.1387 -1.236462,0.3703 -2.138672,1.5012 -2.138672,2.8613 l 0,28 c 0,1.662 1.338,3 3,3 l 37.9999978,0 c 1.662,0 3,-1.338 3,-3 l 0,-28 c 0,-1.3601 -0.90221,-2.491 -2.13867,-2.8613 -0.37037,-1.2365 -1.50118,-2.1387 -2.86133,-2.1387 l -16.999998,0 -16.9999998,0 z"
       id="rect4135-5"
       inkscape:connector-curvature="0" />
    <path
       style="opacity:1;fill:#ffffff;fill-opacity:0.4;stroke:none;stroke-width:0.1;stroke-linecap:round;stroke-linejoin:round;stroke-miterlimit:4;stroke-dasharray:none;stroke-opacity:1"
       d="m 7,1010.3622 34,0 c 1.662,0 3,1.338 3,3 0,-1 -1,-2 -3,-2 l -34,0 c -2,0 -3,1 -3,2 0,-1.662 1.338,-3 3,-3 z"
       id="rect4135-3-7"
       inkscape:connector-curvature="0"
       sodipodi:nodetypes="sscsscs" />
  </g>
</svg>
