<?xml version="1.0" encoding="UTF-8" standalone="no"?>
<!-- Created with Inkscape (http://www.inkscape.org/) -->

<svg
   xmlns:dc="http://purl.org/dc/elements/1.1/"
   xmlns:cc="http://creativecommons.org/ns#"
   xmlns:rdf="http://www.w3.org/1999/02/22-rdf-syntax-ns#"
   xmlns:svg="http://www.w3.org/2000/svg"
   xmlns="http://www.w3.org/2000/svg"
   xmlns:xlink="http://www.w3.org/1999/xlink"
   xmlns:sodipodi="http://sodipodi.sourceforge.net/DTD/sodipodi-0.dtd"
   xmlns:inkscape="http://www.inkscape.org/namespaces/inkscape"
   width="48"
   height="48"
   id="svg2"
   version="1.1"
   inkscape:version="0.91 r"
   sodipodi:docname="deja-dup.svg"
   inkscape:export-filename="/home/alexandros/Pictures/personal-icon-set/deja-dup.png"
   inkscape:export-xdpi="90"
   inkscape:export-ydpi="90">
  <defs
     id="defs4">
    <linearGradient
       inkscape:collect="always"
       id="linearGradient4841">
      <stop
         style="stop-color:#e0e0e0;stop-opacity:0.1"
         offset="0"
         id="stop4843" />
      <stop
         style="stop-color:#adadad;stop-opacity:0"
         offset="1"
         id="stop4845" />
    </linearGradient>
    <inkscape:perspective
       sodipodi:type="inkscape:persp3d"
       inkscape:vp_x="0 : 12 : 1"
       inkscape:vp_y="0 : 1000 : 0"
       inkscape:vp_z="24 : 12 : 1"
       inkscape:persp3d-origin="12 : 8 : 1"
       id="perspective3810" />
    <linearGradient
       inkscape:collect="always"
       xlink:href="#linearGradient4841-0"
       id="linearGradient3053-5"
       gradientUnits="userSpaceOnUse"
       gradientTransform="matrix(0.90909091,0,0,0.90909091,64,100.76029)"
       x1="-68"
       y1="996.36218"
       x2="-20"
       y2="1044.3622" />
    <linearGradient
       inkscape:collect="always"
       id="linearGradient4841-0">
      <stop
         style="stop-color:#ffffff;stop-opacity:0.14901961"
         offset="0"
         id="stop4843-2" />
      <stop
         style="stop-color:#177ed5;stop-opacity:0"
         offset="1"
         id="stop4845-8" />
    </linearGradient>
    <radialGradient
       inkscape:collect="always"
       xlink:href="#linearGradient4841"
       id="radialGradient4338"
       cx="-53.286785"
       cy="996.85913"
       fx="-53.286785"
       fy="996.85913"
       r="20"
       gradientUnits="userSpaceOnUse"
       gradientTransform="matrix(-2.1919649e-6,1.9999978,-2.0000002,-2.1919676e-6,1997.7184,1114.9379)" />
  </defs>
  <sodipodi:namedview
     id="base"
     pagecolor="#ffffff"
     bordercolor="#666666"
     borderopacity="1.0"
     inkscape:pageopacity="0.0"
     inkscape:pageshadow="2"
     inkscape:zoom="11.313708"
     inkscape:cx="21.074196"
     inkscape:cy="20.427122"
     inkscape:document-units="px"
     inkscape:current-layer="layer1"
     showgrid="false"
     inkscape:snap-grids="true"
     inkscape:object-paths="true"
     inkscape:snap-intersection-paths="true"
     inkscape:snap-smooth-nodes="true"
     inkscape:object-nodes="true"
     inkscape:snap-midpoints="false"
     inkscape:window-width="1680"
     inkscape:window-height="995"
     inkscape:window-x="0"
     inkscape:window-y="27"
     inkscape:window-maximized="1"
     inkscape:showpageshadow="false"
     borderlayer="true"
     inkscape:snap-bbox="true"
     inkscape:snap-nodes="true"
     inkscape:bbox-paths="true"
     inkscape:bbox-nodes="true"
     inkscape:snap-bbox-edge-midpoints="true"
     inkscape:snap-bbox-midpoints="false"
     inkscape:snap-global="true">
    <inkscape:grid
       type="xygrid"
       id="grid3808"
       empspacing="4"
       visible="true"
       enabled="true"
       snapvisiblegridlinesonly="true" />
  </sodipodi:namedview>
  <metadata
     id="metadata7">
    <rdf:RDF>
      <cc:Work
         rdf:about="">
        <dc:format>image/svg+xml</dc:format>
        <dc:type
           rdf:resource="http://purl.org/dc/dcmitype/StillImage" />
        <dc:title></dc:title>
      </cc:Work>
    </rdf:RDF>
  </metadata>
  <g
     inkscape:label="Layer 1"
     inkscape:groupmode="layer"
     id="layer1"
     transform="translate(0,-1004.3622)">
    <rect
       style="fill:#4d4d4d;fill-opacity:1;stroke:none"
       id="rect4135"
       width="40"
       height="40"
       x="4"
       y="1008.3622"
       rx="3"
       ry="3" />
    <rect
       style="fill:#4d4d4d;fill-opacity:1;stroke:#333333;stroke-width:1;stroke-linecap:round;stroke-linejoin:round;stroke-miterlimit:4;stroke-dasharray:none;stroke-opacity:1"
       id="rect4137"
       width="35"
       height="35"
       x="6.5"
       y="1010.8622"
       rx="1"
       ry="1" />
    <circle
       style="opacity:1;fill:#666666;fill-opacity:1;fill-rule:nonzero;stroke:none;stroke-width:1;stroke-linecap:butt;stroke-linejoin:miter;stroke-miterlimit:4;stroke-dasharray:none;stroke-opacity:1"
       id="path4270"
       cx="24"
       cy="1018.3622"
       r="5" />
    <circle
       style="fill:#808080;fill-opacity:1;stroke:#666666;stroke-width:0.5;stroke-linecap:round;stroke-linejoin:round;stroke-miterlimit:4;stroke-dasharray:none;stroke-opacity:1"
       id="path4438"
       cx="24"
       cy="1034.373"
       r="3.5" />
    <path
       id="rect4389-3-2"
       d="m 19.050781,1030.0078 c -0.255619,0 -0.511162,0.099 -0.707031,0.2949 -0.391737,0.3919 -0.391737,1.0223 0,1.4141 l 4.242188,4.2422 -4.242188,4.2422 1.414063,1.414 4.242187,-4.2421 4.242188,4.2421 1.414062,-1.414 -4.242187,-4.2422 4.242187,-4.2422 c 0.391737,-0.3917 0.391737,-1.0223 0,-1.4141 -0.391737,-0.3917 -1.022325,-0.3917 -1.414062,0 L 24,1034.5449 l -4.242187,-4.2422 c -0.195869,-0.1958 -0.451413,-0.2949 -0.707032,-0.2949 z"
       style="fill:#333333;fill-opacity:0.2;stroke:none"
       inkscape:connector-curvature="0"
       sodipodi:nodetypes="sccccccccccccccs" />
    <path
       style="color:#000000;font-style:normal;font-variant:normal;font-weight:normal;font-stretch:normal;font-size:medium;line-height:normal;font-family:sans-serif;text-indent:0;text-align:start;text-decoration:none;text-decoration-line:none;letter-spacing:normal;word-spacing:normal;text-transform:none;direction:ltr;block-progression:tb;writing-mode:lr-tb;baseline-shift:baseline;text-anchor:start;display:inline;overflow:visible;visibility:visible;fill:#333333;fill-opacity:0.2;fill-rule:nonzero;stroke:none;enable-background:accumulate"
       d="m 24,1026.3731 c -4.958718,0 -9,4.0413 -9,9 0,4.9587 4.041282,9 9,9 4.958718,0 9,-4.0413 9,-9 0,-4.9587 -4.041282,-9 -9,-9 z m 0,2 c 3.877838,0 7,3.1222 7,7 0,3.8779 -3.122162,7 -7,7 -3.877838,0 -7,-3.1221 -7,-7 0,-3.8778 3.122162,-7 7,-7 z"
       id="path4429-4"
       inkscape:connector-curvature="0" />
    <path
       id="rect4389-3-2-3"
       d="m 19.050781,1028.4224 c -0.255619,0 -0.511162,0.099 -0.707031,0.295 -0.391737,0.3918 -0.391737,1.0222 0,1.414 l 4.242187,4.2422 -4.242187,4.2422 c -0.391737,0.3917 -0.391737,1.0223 0,1.4141 0.391737,0.3917 1.022325,0.3917 1.414062,0 L 24,1035.7877 l 4.242187,4.2422 c 0.391738,0.3917 1.022326,0.3917 1.414063,0 0.391737,-0.3918 0.391737,-1.0223 0,-1.4141 l -4.242188,-4.2422 4.242188,-4.2422 c 0.391737,-0.3917 0.391737,-1.0223 0,-1.414 -0.391737,-0.3918 -1.022325,-0.3918 -1.414063,0 L 24,1032.9595 l -4.242188,-4.2421 c -0.195868,-0.1959 -0.451412,-0.295 -0.707031,-0.295 z"
       style="fill:#999999;fill-opacity:1;stroke:none"
       inkscape:connector-curvature="0" />
    <path
       style="color:#000000;font-style:normal;font-variant:normal;font-weight:normal;font-stretch:normal;font-size:medium;line-height:normal;font-family:sans-serif;text-indent:0;text-align:start;text-decoration:none;text-decoration-line:none;letter-spacing:normal;word-spacing:normal;text-transform:none;direction:ltr;block-progression:tb;writing-mode:lr-tb;baseline-shift:baseline;text-anchor:start;display:inline;overflow:visible;visibility:visible;fill:#999999;fill-opacity:1;fill-rule:nonzero;stroke:none;enable-background:accumulate"
       d="m 24,1025.3731 c -4.958718,0 -9,4.0413 -9,9 0,4.9587 4.041282,9 9,9 4.958718,0 9,-4.0413 9,-9 0,-4.9587 -4.041282,-9 -9,-9 z m 0,2 c 3.877838,0 7,3.1222 7,7 0,3.8779 -3.122162,7 -7,7 -3.877838,0 -7,-3.1221 -7,-7 0,-3.8778 3.122162,-7 7,-7 z"
       id="path4429-4-0"
       inkscape:connector-curvature="0" />
    <ellipse
       style="fill:#cccccc;fill-opacity:1;stroke:none"
       id="path4438-4"
       cx="24"
       cy="1034.373"
       rx="2"
       ry="1.9999956" />
    <path
       sodipodi:nodetypes="csczc"
       style="color:#000000;font-style:normal;font-variant:normal;font-weight:normal;font-stretch:normal;font-size:medium;line-height:normal;font-family:sans-serif;text-indent:0;text-align:start;text-decoration:none;text-decoration-line:none;letter-spacing:normal;word-spacing:normal;text-transform:none;direction:ltr;block-progression:tb;writing-mode:lr-tb;baseline-shift:baseline;text-anchor:start;display:inline;overflow:visible;visibility:visible;fill:#ffffff;fill-opacity:0.2;fill-rule:nonzero;stroke:none;enable-background:accumulate"
       d="m 33,1034.3731 c 0,-4.9587 -4.041282,-9 -9,-9 -4.958718,0 -9,4.0413 -9,9 0,-4.0147 4,-8 9,-8.0109 5,-0.011 9,4.0109 9,8.0109 z"
       id="path4429-4-0-2"
       inkscape:connector-curvature="0" />
    <path
       sodipodi:nodetypes="csczc"
       style="color:#000000;font-style:normal;font-variant:normal;font-weight:normal;font-stretch:normal;font-size:medium;line-height:normal;font-family:sans-serif;text-indent:0;text-align:start;text-decoration:none;text-decoration-line:none;letter-spacing:normal;word-spacing:normal;text-transform:none;direction:ltr;block-progression:tb;writing-mode:lr-tb;baseline-shift:baseline;text-anchor:start;display:inline;overflow:visible;visibility:visible;fill:#333333;fill-opacity:0.2;fill-rule:nonzero;stroke:none;enable-background:accumulate"
       d="m 33,1034.3731 c 0,4.9587 -4.041282,9 -9,9 -4.958718,0 -9,-4.0413 -9,-9 0,4.0147 4,8.0109 9,8.0109 5,0 9,-4.0109 9,-8.0109 z"
       id="path4429-4-0-2-2"
       inkscape:connector-curvature="0" />
    <path
       style="opacity:1;fill:#ffffff;fill-opacity:0.2;stroke:none"
       d="m 6.7272727,1008.3622 34.5454543,0 c 1.510909,0 2.727273,1.3204 2.727273,3 0,-1 -1.391439,-2 -2.727273,-2 -8.433238,0 -33.3930834,0 -34.5454544,0 -1.3862841,0 -2.7272727,1 -2.7272726,2 0,-1.6486 1.2163636,-3 2.7272727,-3 z"
       id="rect4135-2"
       inkscape:connector-curvature="0"
       sodipodi:nodetypes="sscsscs" />
    <path
       style="opacity:1;fill:#333333;fill-opacity:0.40000001;stroke:none"
       d="m 6.7272727,1048.3622 34.5454543,0 c 1.510909,0 2.727273,-1.3204 2.727273,-3 0,1 -1.391439,2 -2.727273,2 -8.433238,0 -33.3930834,0 -34.5454544,0 -1.3862841,0 -2.7272727,-1 -2.7272726,-2 0,1.6486 1.2163636,3 2.7272727,3 z"
       id="rect4135-2-1"
       inkscape:connector-curvature="0"
       sodipodi:nodetypes="sscsscs" />
    <path
       style="opacity:0.1;fill:#ffffff;fill-opacity:1;stroke:none"
       d="m 8,1011.3622 32,0 c 0.394858,0 0.671453,-0.053 0.852608,0.1433 0.181155,0.1957 0.160013,0.4023 0.147392,0.8567 -1,0 -28.00926,0.025 -34,0 0,-0.4116 -0.043407,-0.6597 0.1367188,-0.8398 0.1801257,-0.1802 0.277698,-0.1602 0.8632812,-0.1602 z"
       id="rect4135-2-17"
       inkscape:connector-curvature="0"
       sodipodi:nodetypes="sszcczs" />
    <path
       style="opacity:1;fill:#333333;fill-opacity:0.2;stroke:none"
       d="m 7.9983009,1045.3733 32.0000001,0 c 0.394858,0 0.671453,0.053 0.852608,-0.1433 0.181155,-0.1957 0.160013,-0.4023 0.147392,-0.8567 -1,0 -28.00926,-0.025 -33.9999999,0 0,0.4116 -0.043407,0.6597 0.1367188,0.8398 0.180126,0.1802 0.277698,0.1602 0.863281,0.1602 z"
       id="rect4135-2-17-8"
       inkscape:connector-curvature="0"
       sodipodi:nodetypes="sszcczs" />
    <circle
       style="opacity:1;fill:#cccccc;fill-opacity:1;fill-rule:nonzero;stroke:none;stroke-width:1;stroke-linecap:butt;stroke-linejoin:miter;stroke-miterlimit:4;stroke-dasharray:none;stroke-opacity:1"
       id="path4272"
       cx="737.0614"
       cy="703.12024"
       r="3"
       transform="matrix(0.70710678,0.70710678,-0.70710678,0.70710678,0,0)" />
    <path
       style="opacity:1;fill:#ffffff;fill-opacity:0.40000001;fill-rule:nonzero;stroke:none;stroke-width:1;stroke-linecap:butt;stroke-linejoin:miter;stroke-miterlimit:4;stroke-dasharray:none;stroke-opacity:1"
       d="m 27.000024,1018.3622 c -2.4e-5,-1 -1.34317,-2 -3.000024,-2 -1.656854,0 -3,1 -2.999976,2 0,-1.6569 1.343146,-3 3,-3 1.656854,0 3,1.3431 3,3 z"
       id="path4272-7"
       inkscape:connector-curvature="0"
       sodipodi:nodetypes="cscsc" />
    <path
       style="fill:#4d4d4d;fill-rule:evenodd;stroke:none;stroke-width:1px;stroke-linecap:butt;stroke-linejoin:miter;stroke-opacity:1;fill-opacity:1"
       d="m 26,1016.3622 0,2 -2,-2 z"
       id="path4274"
       inkscape:connector-curvature="0" />
    <path
       style="opacity:1;fill:#333333;fill-opacity:0.2;fill-rule:nonzero;stroke:none;stroke-width:1;stroke-linecap:butt;stroke-linejoin:miter;stroke-miterlimit:4;stroke-dasharray:none;stroke-opacity:1"
       d="m 27.000024,1018.3622 c -2.4e-5,1 -1.34317,2 -3.000024,2 -1.656854,0 -3,-1 -2.999976,-2 0,1.6569 1.343146,3 3,3 1.656854,0 3,-1.3431 3,-3 z"
       id="path4272-7-9"
       inkscape:connector-curvature="0"
       sodipodi:nodetypes="cscsc" />
    <path
       style="fill:#ffffff;fill-opacity:0.4;stroke:none"
       d="m 26,1034.373 c 0,-1.0108 -0.895429,-1.0108 -2,-1.0108 -1.104571,0 -2,0 -2,1.0108 5.3e-5,-1.1045 0.895468,-1.9999 2,-1.9999 1.104532,0 1.999947,0.8954 2,1.9999 z"
       id="path4438-4-2"
       inkscape:connector-curvature="0"
       sodipodi:nodetypes="cscsc" />
    <path
       style="fill:#333333;fill-opacity:0.1;stroke:none"
       d="m 26,1034.3623 c 0,1.0108 -0.895429,1.0108 -2,1.0108 -1.104571,0 -2,0 -2,-1.0108 5.3e-5,1.1045 0.895468,1.9999 2,1.9999 1.104532,0 1.999947,-0.8954 2,-1.9999 z"
       id="path4438-4-2-2"
       inkscape:connector-curvature="0"
       sodipodi:nodetypes="cscsc" />
    <rect
       style="fill:url(#radialGradient4338);fill-opacity:1;stroke:none"
       id="rect4135-7"
       width="40"
       height="40"
       x="4"
       y="1008.3622"
       rx="3"
       ry="3" />
  </g>
</svg>
