<?xml version="1.0" encoding="UTF-8" standalone="no"?>
<!-- Created with Inkscape (http://www.inkscape.org/) -->

<svg
   xmlns:dc="http://purl.org/dc/elements/1.1/"
   xmlns:cc="http://creativecommons.org/ns#"
   xmlns:rdf="http://www.w3.org/1999/02/22-rdf-syntax-ns#"
   xmlns:svg="http://www.w3.org/2000/svg"
   xmlns="http://www.w3.org/2000/svg"
   xmlns:xlink="http://www.w3.org/1999/xlink"
   xmlns:sodipodi="http://sodipodi.sourceforge.net/DTD/sodipodi-0.dtd"
   xmlns:inkscape="http://www.inkscape.org/namespaces/inkscape"
   width="48"
   height="48"
   id="svg2"
   version="1.1"
   inkscape:version="0.91 r"
   sodipodi:docname="geary.svg"
   viewBox="0 0 48 48"
   inkscape:export-filename="/home/alexandros/Pictures/personal-icon-set/geary.png"
   inkscape:export-xdpi="90"
   inkscape:export-ydpi="90">
  <defs
     id="defs4">
    <inkscape:perspective
       sodipodi:type="inkscape:persp3d"
       inkscape:vp_x="0 : 12 : 1"
       inkscape:vp_y="0 : 1000 : 0"
       inkscape:vp_z="24 : 12 : 1"
       inkscape:persp3d-origin="12 : 8 : 1"
       id="perspective3810" />
    <linearGradient
       inkscape:collect="always"
       id="linearGradient4276">
      <stop
         style="stop-color:#f7f6f1;stop-opacity:0.1"
         offset="0"
         id="stop4278" />
      <stop
         style="stop-color:#d7dee0;stop-opacity:0"
         offset="1"
         id="stop4280" />
    </linearGradient>
    <radialGradient
       inkscape:collect="always"
       xlink:href="#linearGradient4276"
       id="radialGradient4381"
       cx="47.25"
       cy="-2.2500002"
       fx="47.25"
       fy="-2.2500002"
       r="20"
       gradientTransform="matrix(-1.9419639e-8,2.0001953,-2,-1.9417743e-8,-0.5,-90.509228)"
       gradientUnits="userSpaceOnUse" />
  </defs>
  <sodipodi:namedview
     id="base"
     pagecolor="#ffffff"
     bordercolor="#666666"
     borderopacity="1.0"
     inkscape:pageopacity="0.0"
     inkscape:pageshadow="2"
     inkscape:zoom="11.313708"
     inkscape:cx="31.020268"
     inkscape:cy="35.708039"
     inkscape:document-units="px"
     inkscape:current-layer="layer7"
     showgrid="false"
     inkscape:snap-grids="false"
     inkscape:object-paths="true"
     inkscape:snap-intersection-paths="true"
     inkscape:snap-smooth-nodes="false"
     inkscape:object-nodes="true"
     inkscape:snap-midpoints="false"
     inkscape:window-width="1680"
     inkscape:window-height="995"
     inkscape:window-x="0"
     inkscape:window-y="27"
     inkscape:window-maximized="1"
     inkscape:showpageshadow="false"
     borderlayer="true"
     inkscape:snap-bbox="true"
     inkscape:snap-nodes="true"
     inkscape:bbox-paths="false"
     inkscape:bbox-nodes="true"
     inkscape:snap-bbox-edge-midpoints="false"
     inkscape:snap-bbox-midpoints="false"
     inkscape:snap-global="true">
    <inkscape:grid
       type="xygrid"
       id="grid3808"
       empspacing="4"
       visible="true"
       enabled="true"
       snapvisiblegridlinesonly="true" />
  </sodipodi:namedview>
  <metadata
     id="metadata7">
    <rdf:RDF>
      <cc:Work
         rdf:about="">
        <dc:format>image/svg+xml</dc:format>
        <dc:type
           rdf:resource="http://purl.org/dc/dcmitype/StillImage" />
        <dc:title />
      </cc:Work>
    </rdf:RDF>
  </metadata>
  <g
     inkscape:groupmode="layer"
     id="layer4"
     inkscape:label="lines"
     style="display:none">
    <g
       id="g4339">
      <path
         inkscape:connector-curvature="0"
         id="path4276"
         d="M 0,48 48,0"
         style="fill:none;fill-rule:evenodd;stroke:#000000;stroke-width:0.1;stroke-linecap:butt;stroke-linejoin:miter;stroke-miterlimit:4;stroke-dasharray:none;stroke-opacity:1" />
      <path
         inkscape:connector-curvature="0"
         id="path4276-5"
         d="M 0,0 48,48"
         style="fill:none;fill-rule:evenodd;stroke:#000000;stroke-width:0.1;stroke-linecap:butt;stroke-linejoin:miter;stroke-miterlimit:4;stroke-dasharray:none;stroke-opacity:1" />
      <path
         inkscape:connector-curvature="0"
         id="path4293"
         d="m 24,0 0,48"
         style="fill:none;fill-rule:evenodd;stroke:#000000;stroke-width:0.1;stroke-linecap:butt;stroke-linejoin:miter;stroke-miterlimit:4;stroke-dasharray:none;stroke-opacity:1" />
      <path
         inkscape:connector-curvature="0"
         id="path4295"
         d="m 0,24 48,0"
         style="fill:none;fill-rule:evenodd;stroke:#000000;stroke-width:0.1;stroke-linecap:butt;stroke-linejoin:miter;stroke-miterlimit:4;stroke-dasharray:none;stroke-opacity:1" />
      <path
         inkscape:connector-curvature="0"
         id="path4297"
         d="M 48,16 0,16"
         style="fill:none;fill-rule:evenodd;stroke:#000000;stroke-width:0.1;stroke-linecap:butt;stroke-linejoin:miter;stroke-miterlimit:4;stroke-dasharray:none;stroke-opacity:1" />
      <path
         inkscape:connector-curvature="0"
         id="path4299"
         d="m 0,32 48,0"
         style="fill:none;fill-rule:evenodd;stroke:#000000;stroke-width:0.1;stroke-linecap:butt;stroke-linejoin:miter;stroke-miterlimit:4;stroke-dasharray:none;stroke-opacity:1" />
      <path
         inkscape:connector-curvature="0"
         id="path4301"
         d="M 32,48 32,0"
         style="fill:none;fill-rule:evenodd;stroke:#000000;stroke-width:0.1;stroke-linecap:butt;stroke-linejoin:miter;stroke-miterlimit:4;stroke-dasharray:none;stroke-opacity:1" />
      <path
         inkscape:connector-curvature="0"
         id="path4303"
         d="m 16,0 0,48"
         style="fill:none;fill-rule:evenodd;stroke:#000000;stroke-width:0.1;stroke-linecap:butt;stroke-linejoin:miter;stroke-miterlimit:4;stroke-dasharray:none;stroke-opacity:1" />
      <rect
         ry="3"
         rx="3"
         y="4"
         x="4"
         height="40"
         width="40"
         id="rect4305"
         style="opacity:1;fill:none;fill-opacity:0.2;stroke:#000000;stroke-width:0.1;stroke-linecap:round;stroke-linejoin:round;stroke-miterlimit:4;stroke-dasharray:none;stroke-opacity:1" />
      <rect
         ry="3"
         rx="3"
         y="8"
         x="2"
         height="32"
         width="44"
         id="rect4305-1"
         style="opacity:1;fill:none;fill-opacity:0.2;stroke:#000000;stroke-width:0.1;stroke-linecap:round;stroke-linejoin:round;stroke-miterlimit:4;stroke-dasharray:none;stroke-opacity:1" />
      <rect
         transform="matrix(0,1,-1,0,0,0)"
         ry="3"
         rx="3"
         y="-40"
         x="2"
         height="32"
         width="44"
         id="rect4305-1-7"
         style="opacity:1;fill:none;fill-opacity:0.2;stroke:#000000;stroke-width:0.1;stroke-linecap:round;stroke-linejoin:round;stroke-miterlimit:4;stroke-dasharray:none;stroke-opacity:1" />
      <circle
         cx="24"
         cy="24"
         id="path4337"
         style="opacity:1;fill:none;fill-opacity:0.2;stroke:#000000;stroke-width:0.09999999;stroke-linecap:round;stroke-linejoin:round;stroke-miterlimit:4;stroke-dasharray:none;stroke-opacity:1"
         r="22" />
    </g>
  </g>
  <g
     inkscape:label="base"
     inkscape:groupmode="layer"
     id="layer1"
     transform="translate(0,-1004.3622)"
     style="display:inline">
    <path
       inkscape:connector-curvature="0"
       style="fill:#ebf2f2;fill-opacity:1;stroke:none"
       d="m 4,1024.3622 20,13 20,-13 -20,-15 z"
       id="rect2986"
       clip-path="none"
       sodipodi:nodetypes="ccccc" />
  </g>
  <g
     inkscape:groupmode="layer"
     id="layer5"
     inkscape:label="dropshadow" />
  <g
     inkscape:groupmode="layer"
     id="layer3"
     inkscape:label="base 2"
     style="display:inline">
    <rect
       style="opacity:1;fill:#f2f0e8;fill-opacity:1;stroke:none;stroke-width:0.1;stroke-linecap:round;stroke-linejoin:round;stroke-miterlimit:4;stroke-dasharray:none;stroke-opacity:1"
       id="rect3434"
       width="32"
       height="32"
       x="8"
       y="4"
       rx="3"
       ry="3" />
  </g>
  <g
     inkscape:groupmode="layer"
     id="layer8"
     inkscape:label="base3">
    <path
       style="fill:#d2d9d9;fill-opacity:1;stroke:none"
       d="m 44,20 0,21.0027 c 0,1.662 -1.338,3.0001 -3,3 l -34,0 c -1.662,-10e-5 -3,-1.338 -3,-3 L 4,20 24,33 Z"
       id="rect3764"
       inkscape:connector-curvature="0"
       sodipodi:nodetypes="cssssccc" />
    <path
       style="fill:#e1e5e5;fill-opacity:1;stroke:none"
       d="m 41,44.00275 -34.0000003,0 c -1.6619998,0 -2.9999998,-1.338 -2.9999998,-3 l 0,-21.0027 z"
       id="rect3764-5"
       inkscape:connector-curvature="0"
       sodipodi:nodetypes="csscc" />
    <path
       style="display:inline;fill:#333333;fill-opacity:0.1;fill-rule:evenodd;stroke:none;stroke-width:1px;stroke-linecap:butt;stroke-linejoin:miter;stroke-opacity:1"
       d="M 24.771484 32.498047 L 24 33 L 41 44 L 41 43 L 24.771484 32.498047 z "
       id="path4274" />
  </g>
  <g
     inkscape:groupmode="layer"
     id="layer10"
     inkscape:label="symbol"
     style="display:inline" />
  <g
     inkscape:groupmode="layer"
     id="layer2"
     inkscape:label="tint&amp;shade"
     style="display:inline">
    <path
       style="opacity:1;fill:#333333;fill-opacity:0.2;stroke:none"
       d="m 24,43.00275 c 6.69596,0 17,0 17,0 1.554687,0 3,-1.5163 3,-2.0001 0,1.662 -1.338,3 -3,3 l -34.0000001,10e-5 c -1.662,0 -3,-1.338 -3,-3 0,0.3773 1.527675,1.9998 3,2 L 24,43.00275 Z"
       id="rect3764-4"
       inkscape:connector-curvature="0"
       sodipodi:nodetypes="cscsscszc" />
    <path
       style="display:inline;opacity:1;fill:#ffffff;fill-opacity:0.4;stroke:none;stroke-width:0.1;stroke-linecap:round;stroke-linejoin:round;stroke-miterlimit:4;stroke-dasharray:none;stroke-opacity:1"
       d="m 11,4 26,0 c 1.662,0 3,1.338 3,3 C 40,6 38.47586,5 37,5 30,5 19.753881,5 11,5 9.5524272,5 8,6 8,7 8,5.338 9.338,4 11,4 Z"
       id="rect3434-1"
       inkscape:connector-curvature="0"
       sodipodi:nodetypes="sscsscs" />
    <rect
       style="opacity:1;fill:#b2b2af;fill-opacity:1;fill-rule:nonzero;stroke:none;stroke-width:2;stroke-linecap:butt;stroke-linejoin:round;stroke-miterlimit:4;stroke-dasharray:none;stroke-opacity:1"
       id="rect4187"
       width="6"
       height="1"
       x="12"
       y="8"
       rx="0"
       ry="0" />
    <rect
       style="display:inline;opacity:1;fill:#b2b2af;fill-opacity:1;fill-rule:nonzero;stroke:none;stroke-width:2;stroke-linecap:butt;stroke-linejoin:round;stroke-miterlimit:4;stroke-dasharray:none;stroke-opacity:1"
       id="rect4187-2"
       width="24"
       height="1"
       x="12"
       y="11"
       rx="0"
       ry="0" />
    <rect
       style="display:inline;opacity:1;fill:#b2b2af;fill-opacity:1;fill-rule:nonzero;stroke:none;stroke-width:2;stroke-linecap:butt;stroke-linejoin:round;stroke-miterlimit:4;stroke-dasharray:none;stroke-opacity:1"
       id="rect4187-2-4"
       width="24"
       height="1"
       x="12"
       y="14"
       rx="0"
       ry="0" />
    <rect
       style="display:inline;opacity:1;fill:#b2b2af;fill-opacity:1;fill-rule:nonzero;stroke:none;stroke-width:2;stroke-linecap:butt;stroke-linejoin:round;stroke-miterlimit:4;stroke-dasharray:none;stroke-opacity:1"
       id="rect4187-2-4-9"
       width="24"
       height="1"
       x="12"
       y="17"
       rx="0"
       ry="0" />
    <g
       id="g4259">
      <path
         id="path3773"
         d="M 4 20 L 4 22.820312 L 6 25 L 6 21.300781 L 4 20 z "
         style="fill:#f44336;fill-opacity:1;stroke:none" />
      <path
         inkscape:connector-curvature="0"
         id="path3773-4"
         d="m 6,29 -2,-2 0,4 2,2 z"
         style="fill:#2196f3;fill-opacity:1;stroke:none" />
      <path
         inkscape:connector-curvature="0"
         id="path3773-6"
         d="m 6,37 -2,-2 0,4 2,2 z"
         style="fill:#f44336;fill-opacity:1;stroke:none" />
      <path
         sodipodi:nodetypes="cccccc"
         inkscape:connector-curvature="0"
         id="path3773-8"
         d="M 7.126657,42 5.515104,43.6116 C 5.796089,43.7631 6.354499,44.0037 7.003906,44 l 2.122751,0 2,-2 z"
         style="fill:#2196f3;fill-opacity:1;stroke:none" />
      <path
         sodipodi:nodetypes="ccccc"
         inkscape:connector-curvature="0"
         id="path3773-8-7"
         d="m 15.126657,42 -2,2 4,0 2,-2 z"
         style="fill:#f44336;fill-opacity:1;stroke:none" />
      <path
         sodipodi:nodetypes="ccccc"
         inkscape:connector-curvature="0"
         id="path3773-8-7-3"
         d="m 23.126657,42 -2,2 4,0 2,-2 z"
         style="fill:#2196f3;fill-opacity:1;stroke:none" />
      <path
         sodipodi:nodetypes="ccccc"
         inkscape:connector-curvature="0"
         id="path3773-8-7-1"
         d="m 31.126657,42 -2,2 4,0 2,-2 z"
         style="fill:#f44336;fill-opacity:1;stroke:none" />
      <path
         sodipodi:nodetypes="ccccc"
         inkscape:connector-curvature="0"
         id="path3773-8-7-1-8"
         d="m 39.126657,42 -2,2 4,0 2,-2 z"
         style="fill:#2196f3;fill-opacity:1;stroke:none" />
      <path
         inkscape:connector-curvature="0"
         id="path3773-8-7-1-2"
         d="m 42,39.0001 2,2 0,-4 -2,-2 z"
         style="fill:#f44336;fill-opacity:1;stroke:none" />
      <path
         inkscape:connector-curvature="0"
         id="path3773-8-7-1-3"
         d="m 42,31.0001 2,2 0,-4 -2,-2 z"
         style="fill:#2196f3;fill-opacity:1;stroke:none" />
      <path
         id="path3773-8-7-1-3-8"
         d="M 43.394531 20.394531 L 42.003906 21.296875 L 42 23 L 44 25 L 44 21 L 43.394531 20.394531 z "
         style="fill:#f44336;fill-opacity:1;stroke:none" />
      <rect
         ry="0"
         rx="0"
         y="20"
         x="12"
         height="1"
         width="24"
         id="rect4187-2-4-9-7-3"
         style="display:inline;opacity:1;fill:#b2b2af;fill-opacity:1;fill-rule:nonzero;stroke:none;stroke-width:2;stroke-linecap:butt;stroke-linejoin:round;stroke-miterlimit:4;stroke-dasharray:none;stroke-opacity:1" />
      <rect
         ry="0"
         rx="0"
         y="23"
         x="12"
         height="1"
         width="16"
         id="rect4187-2-4-9-7-3-6"
         style="display:inline;opacity:1;fill:#b2b2af;fill-opacity:1;fill-rule:nonzero;stroke:none;stroke-width:2;stroke-linecap:butt;stroke-linejoin:round;stroke-miterlimit:4;stroke-dasharray:none;stroke-opacity:1" />
    </g>
  </g>
  <g
     inkscape:groupmode="layer"
     id="layer7"
     inkscape:label="finish"
     style="display:inline">
    <path
       inkscape:connector-curvature="0"
       style="display:inline;fill:url(#radialGradient4381);fill-opacity:1;stroke:none"
       clip-path="none"
       d="M 11,4 C 9.338,4 7.999999,5.338 7.999999,7 l 0,10 -4,3 0,21.003906 c 0,1.662 1.338,2.9999 3,3 l 34.000001,0 c 1.662,10e-5 3,-1.338 3,-3 L 44,20 40,17 40,7 C 40,5.338 38.662,4 37,4 L 11,4 Z"
       id="rect2986-0" />
  </g>
</svg>
