<?xml version="1.0" encoding="UTF-8" standalone="no"?>
<!-- Created with Inkscape (http://www.inkscape.org/) -->

<svg
   xmlns:dc="http://purl.org/dc/elements/1.1/"
   xmlns:cc="http://creativecommons.org/ns#"
   xmlns:rdf="http://www.w3.org/1999/02/22-rdf-syntax-ns#"
   xmlns:svg="http://www.w3.org/2000/svg"
   xmlns="http://www.w3.org/2000/svg"
   xmlns:xlink="http://www.w3.org/1999/xlink"
   xmlns:sodipodi="http://sodipodi.sourceforge.net/DTD/sodipodi-0.dtd"
   xmlns:inkscape="http://www.inkscape.org/namespaces/inkscape"
   width="48"
   height="48"
   id="svg2"
   version="1.1"
   inkscape:version="0.91 r"
   sodipodi:docname="gnome-power-manager.svg"
   viewBox="0 0 48 48"
   inkscape:export-filename="/home/alexandros/Pictures/personal-icon-set/gnome-power-manager.png"
   inkscape:export-xdpi="90"
   inkscape:export-ydpi="90">
  <defs
     id="defs4">
    <linearGradient
       inkscape:collect="always"
       id="linearGradient4581">
      <stop
         style="stop-color:#fff59b;stop-opacity:0.1"
         offset="0"
         id="stop4583" />
      <stop
         style="stop-color:#fff59b;stop-opacity:0"
         offset="1"
         id="stop4585" />
    </linearGradient>
    <linearGradient
       inkscape:collect="always"
       id="linearGradient4453">
      <stop
         style="stop-color:#333333;stop-opacity:0.10196079"
         offset="0"
         id="stop4455" />
      <stop
         style="stop-color:#333333;stop-opacity:0"
         offset="1"
         id="stop4457" />
    </linearGradient>
    <inkscape:perspective
       sodipodi:type="inkscape:persp3d"
       inkscape:vp_x="0 : 12 : 1"
       inkscape:vp_y="0 : 1000 : 0"
       inkscape:vp_z="24 : 12 : 1"
       inkscape:persp3d-origin="12 : 8 : 1"
       id="perspective3810" />
    <filter
       id="filter4630"
       inkscape:label="Drop Shadow"
       style="color-interpolation-filters:sRGB">
      <feFlood
         id="feFlood4632"
         result="flood"
         flood-color="rgb(0,0,0)"
         flood-opacity="1" />
      <feComposite
         id="feComposite4634"
         result="composite1"
         operator="in"
         in2="SourceGraphic"
         in="flood" />
      <feGaussianBlur
         id="feGaussianBlur4636"
         result="blur"
         stdDeviation="0.5"
         in="composite1" />
      <feOffset
         id="feOffset4638"
         result="offset"
         dy="0.5"
         dx="0" />
      <feComposite
         id="feComposite4640"
         result="composite2"
         operator="over"
         in2="offset"
         in="SourceGraphic" />
    </filter>
    <linearGradient
       inkscape:collect="always"
       xlink:href="#linearGradient4453"
       id="linearGradient4459"
       x1="21.998587"
       y1="21.998587"
       x2="37.796677"
       y2="37.796677"
       gradientUnits="userSpaceOnUse" />
    <filter
       inkscape:collect="always"
       style="color-interpolation-filters:sRGB"
       id="filter4511"
       x="-0.063907285"
       width="1.1278146"
       y="-0.038433455"
       height="1.0768669">
      <feGaussianBlur
         inkscape:collect="always"
         stdDeviation="0.51244606"
         id="feGaussianBlur4513" />
    </filter>
    <radialGradient
       inkscape:collect="always"
       xlink:href="#linearGradient4581"
       id="radialGradient4587"
       cx="-53.289474"
       cy="-19.696775"
       fx="-53.289474"
       fy="-19.696775"
       r="22"
       gradientUnits="userSpaceOnUse"
       gradientTransform="matrix(-4.8576189e-8,2,-2,-4.8576189e-8,-37.393555,108.57894)" />
  </defs>
  <sodipodi:namedview
     id="base"
     pagecolor="#ffffff"
     bordercolor="#666666"
     borderopacity="1.0"
     inkscape:pageopacity="0.0"
     inkscape:pageshadow="2"
     inkscape:zoom="16.833333"
     inkscape:cx="24"
     inkscape:cy="24"
     inkscape:document-units="px"
     inkscape:current-layer="layer7"
     showgrid="false"
     inkscape:snap-grids="false"
     inkscape:object-paths="true"
     inkscape:snap-intersection-paths="false"
     inkscape:snap-smooth-nodes="true"
     inkscape:object-nodes="true"
     inkscape:snap-midpoints="false"
     inkscape:window-width="1680"
     inkscape:window-height="995"
     inkscape:window-x="0"
     inkscape:window-y="27"
     inkscape:window-maximized="1"
     inkscape:showpageshadow="false"
     borderlayer="true"
     inkscape:snap-bbox="true"
     inkscape:snap-nodes="true"
     inkscape:bbox-paths="true"
     inkscape:bbox-nodes="true"
     inkscape:snap-bbox-edge-midpoints="false"
     inkscape:snap-bbox-midpoints="true">
    <inkscape:grid
       type="xygrid"
       id="grid3808"
       empspacing="4"
       visible="true"
       enabled="true"
       snapvisiblegridlinesonly="true" />
  </sodipodi:namedview>
  <metadata
     id="metadata7">
    <rdf:RDF>
      <cc:Work
         rdf:about="">
        <dc:format>image/svg+xml</dc:format>
        <dc:type
           rdf:resource="http://purl.org/dc/dcmitype/StillImage" />
        <dc:title />
      </cc:Work>
    </rdf:RDF>
  </metadata>
  <g
     inkscape:groupmode="layer"
     id="layer4"
     inkscape:label="lines"
     style="display:none">
    <g
       id="g4339"
       style="stroke:#999999;stroke-opacity:1">
      <path
         inkscape:connector-curvature="0"
         id="path4276"
         d="M 0,48 48,0"
         style="fill:none;fill-rule:evenodd;stroke:#999999;stroke-width:0.1;stroke-linecap:butt;stroke-linejoin:miter;stroke-miterlimit:4;stroke-dasharray:none;stroke-opacity:1" />
      <path
         inkscape:connector-curvature="0"
         id="path4276-5"
         d="M 0,0 48,48"
         style="fill:none;fill-rule:evenodd;stroke:#999999;stroke-width:0.1;stroke-linecap:butt;stroke-linejoin:miter;stroke-miterlimit:4;stroke-dasharray:none;stroke-opacity:1" />
      <path
         inkscape:connector-curvature="0"
         id="path4293"
         d="m 24,0 0,48"
         style="fill:none;fill-rule:evenodd;stroke:#999999;stroke-width:0.1;stroke-linecap:butt;stroke-linejoin:miter;stroke-miterlimit:4;stroke-dasharray:none;stroke-opacity:1" />
      <path
         inkscape:connector-curvature="0"
         id="path4295"
         d="m 0,24 48,0"
         style="fill:none;fill-rule:evenodd;stroke:#999999;stroke-width:0.1;stroke-linecap:butt;stroke-linejoin:miter;stroke-miterlimit:4;stroke-dasharray:none;stroke-opacity:1" />
      <path
         inkscape:connector-curvature="0"
         id="path4297"
         d="M 48,16 0,16"
         style="fill:none;fill-rule:evenodd;stroke:#999999;stroke-width:0.1;stroke-linecap:butt;stroke-linejoin:miter;stroke-miterlimit:4;stroke-dasharray:none;stroke-opacity:1" />
      <path
         inkscape:connector-curvature="0"
         id="path4299"
         d="m 0,32 48,0"
         style="fill:none;fill-rule:evenodd;stroke:#999999;stroke-width:0.1;stroke-linecap:butt;stroke-linejoin:miter;stroke-miterlimit:4;stroke-dasharray:none;stroke-opacity:1" />
      <path
         inkscape:connector-curvature="0"
         id="path4301"
         d="M 32,48 32,0"
         style="fill:none;fill-rule:evenodd;stroke:#999999;stroke-width:0.1;stroke-linecap:butt;stroke-linejoin:miter;stroke-miterlimit:4;stroke-dasharray:none;stroke-opacity:1" />
      <path
         inkscape:connector-curvature="0"
         id="path4303"
         d="m 16,0 0,48"
         style="fill:none;fill-rule:evenodd;stroke:#999999;stroke-width:0.1;stroke-linecap:butt;stroke-linejoin:miter;stroke-miterlimit:4;stroke-dasharray:none;stroke-opacity:1" />
      <rect
         ry="3"
         rx="3"
         y="4"
         x="4"
         height="40"
         width="40"
         id="rect4305"
         style="opacity:1;fill:none;fill-opacity:0.2;stroke:#999999;stroke-width:0.1;stroke-linecap:round;stroke-linejoin:round;stroke-miterlimit:4;stroke-dasharray:none;stroke-opacity:1" />
      <rect
         ry="3"
         rx="3"
         y="8"
         x="2"
         height="32"
         width="44"
         id="rect4305-1"
         style="opacity:1;fill:none;fill-opacity:0.2;stroke:#999999;stroke-width:0.1;stroke-linecap:round;stroke-linejoin:round;stroke-miterlimit:4;stroke-dasharray:none;stroke-opacity:1" />
      <rect
         transform="matrix(0,1,-1,0,0,0)"
         ry="3"
         rx="3"
         y="-40"
         x="2"
         height="32"
         width="44"
         id="rect4305-1-7"
         style="opacity:1;fill:none;fill-opacity:0.2;stroke:#999999;stroke-width:0.1;stroke-linecap:round;stroke-linejoin:round;stroke-miterlimit:4;stroke-dasharray:none;stroke-opacity:1" />
      <circle
         r="22"
         cx="24"
         cy="24"
         id="path4337"
         style="opacity:1;fill:none;fill-opacity:0.2;stroke:#999999;stroke-width:0.09999999;stroke-linecap:round;stroke-linejoin:round;stroke-miterlimit:4;stroke-dasharray:none;stroke-opacity:1" />
    </g>
  </g>
  <g
     inkscape:label="base"
     inkscape:groupmode="layer"
     id="layer1"
     transform="translate(0,-1004.3622)"
     style="display:inline">
    <circle
       style="display:inline;fill:#ffee58;fill-opacity:1;stroke:none;stroke-width:2;stroke-linecap:round;stroke-linejoin:round;stroke-miterlimit:4;stroke-dasharray:none;stroke-opacity:1"
       id="path4136"
       cx="24"
       cy="1028.3622"
       r="22" />
  </g>
  <g
     inkscape:groupmode="layer"
     id="layer6"
     inkscape:label="longshadow">
    <path
       style="fill:url(#linearGradient4459);fill-rule:evenodd;stroke:none;stroke-width:1px;stroke-linecap:butt;stroke-linejoin:miter;stroke-opacity:1;fill-opacity:1"
       d="M 25.642578 8.2675781 L 14.675781 25.578125 L 22.007812 32.910156 L 22.513672 39.863281 L 28.220703 45.572266 A 22 22 0 0 0 45.583984 28.210938 L 25.642578 8.2675781 z "
       id="path4432" />
  </g>
  <g
     inkscape:groupmode="layer"
     id="layer5"
     inkscape:label="dropshadow">
    <path
       style="display:inline;fill:#212121;fill-opacity:0.2;fill-rule:evenodd;stroke:none;stroke-width:0.1;stroke-linecap:butt;stroke-linejoin:miter;stroke-miterlimit:4;stroke-dasharray:none;stroke-opacity:1;filter:url(#filter4511)"
       d="m 25,9.0168972 c -0.722422,0 -1.50815,1.1956998 -2,1.9999998 -2.595197,4.2441 -7.091504,11.5454 -8,13 -0.908496,1.4546 -1.01567,3 1.005859,3 l 5.994141,0 c -0.0013,4.3519 0.02256,8.317 0,12.4532 0,0.8653 0.277578,1.5468 1,1.5468 0.722422,0 1.50815,-1.1957 2,-2 2.595197,-4.2441 7.091504,-11.5454 8,-13 0.908496,-1.4546 1.01567,-3 -1.005859,-3 l -5.994141,0 c 0.0013,-4.3519 -0.02256,-8.317 0,-12.4531 0,-0.8652998 -0.277578,-1.5468998 -1,-1.5468998 z"
       id="path4153"
       inkscape:connector-curvature="0" />
  </g>
  <g
     inkscape:groupmode="layer"
     id="layer3"
     inkscape:label="symbol"
     style="display:inline">
    <path
       style="fill:#4d4d4d;fill-opacity:1;fill-rule:evenodd;stroke:none;stroke-width:0.1;stroke-linecap:butt;stroke-linejoin:miter;stroke-miterlimit:4;stroke-dasharray:none;stroke-opacity:1"
       d="m 22.000098,38.451686 c 0,0.8653 0.277578,1.5469 1,1.5469 0.722422,0 1.50815,-1.1957 2,-2 2.595197,-4.2441 7.091504,-11.5454 8,-13 0.908496,-1.4546 1.016212,-3 -1.005317,-3 l -7.994725,0 c -1.210554,10e-5 -2,0.8232 -2,2 -0.01436,5.2728 0.02622,9.6527 4.2e-5,14.4531 z"
       id="path4153-8"
       inkscape:connector-curvature="0"
       sodipodi:nodetypes="czszcccc" />
    <path
       style="fill:#4d4d4d;fill-opacity:1;fill-rule:evenodd;stroke:none;stroke-width:0.1;stroke-linecap:butt;stroke-linejoin:miter;stroke-miterlimit:4;stroke-dasharray:none;stroke-opacity:1"
       d="m 26.000056,9.5454861 c 0,-0.1889676 -0.01324,-0.3691743 -0.04146,-0.5354344 -0.100996,-0.59506 -0.393887,-1.0114656 -0.958544,-1.0114656 -0.722422,0 -1.42589,1.1658095 -2,2 0,0 -7.091504,11.5453999 -8,12.9999999 -0.908496,1.4546 -1.016212,3 1.005317,3 l 7.994725,0 c 1.210554,-10e-5 2,-0.8232 2,-2 0.01436,-5.2728 -0.02622,-9.6527 -4.2e-5,-14.4530999 z"
       id="path4153-2-0"
       inkscape:connector-curvature="0"
       sodipodi:nodetypes="cssszcccc" />
  </g>
  <g
     inkscape:groupmode="layer"
     id="layer2"
     inkscape:label="tint&amp;shade"
     style="display:inline">
    <path
       sodipodi:nodetypes="cscczc"
       inkscape:connector-curvature="0"
       id="path4153-2-0-5"
       d="M 25.956875,9.0018929 C 25.854368,8.4119446 25.561599,8 24.999975,8 c -0.722422,0 -1.50815,1.1957 -2,2 -3.173333,5.181239 -0.168939,0.275834 -7.384774,12.000279 C 18,20 20.272155,16.104036 21.5,14 22.727845,11.895964 24.843481,9.0018929 25.956875,9.0018929 Z"
       style="fill:#ffffff;fill-opacity:0.2;fill-rule:evenodd;stroke:none;stroke-width:0.1;stroke-linecap:butt;stroke-linejoin:miter;stroke-miterlimit:4;stroke-dasharray:none;stroke-opacity:1" />
    <path
       inkscape:connector-curvature="0"
       style="display:inline;fill:#ffffff;fill-opacity:0.40000001;stroke:none;stroke-width:2;stroke-linecap:round;stroke-linejoin:round;stroke-miterlimit:4;stroke-dasharray:none;stroke-opacity:1"
       d="M 46.000001,24 C 46,13 36.150265,3.0028606 24,3.00286 11.849735,3.0028604 1.9999993,13 1.9999993,24 1.9999993,11.849735 11.849735,1.9999996 24,2 c 12.150265,-6e-7 22.000001,9.849735 22.000001,22 z"
       id="path4136-5"
       sodipodi:nodetypes="cscsc" />
    <path
       inkscape:connector-curvature="0"
       style="display:inline;fill:#333333;fill-opacity:0.2;stroke:none;stroke-width:2;stroke-linecap:round;stroke-linejoin:round;stroke-miterlimit:4;stroke-dasharray:none;stroke-opacity:1"
       d="M 46.000001,24.00286 C 46,35.00286 36.150265,44.999999 24,45 11.849735,45 1.9999993,35.00286 1.9999993,24.00286 c 0,12.150265 9.8497357,22 22.0000007,22 12.150265,1e-6 22.000001,-9.849735 22.000001,-22 z"
       id="path4136-5-7"
       sodipodi:nodetypes="cscsc" />
    <path
       sodipodi:nodetypes="cscczc"
       inkscape:connector-curvature="0"
       id="path4153-2-0-5-5"
       d="m 22.043199,38.996692 c 0.102507,0.589948 0.395276,1.001894 0.956899,1.001894 0.722423,0 1.50815,-1.195701 2,-2 3.173333,-5.181239 0.16894,-0.275835 7.384774,-12.000279 -2.384799,2.000279 -4.656954,5.896243 -5.884799,8.000279 -1.227844,2.104036 -3.34348,4.998106 -4.456876,4.998106 z"
       style="display:inline;fill:#212121;fill-opacity:0.2;fill-rule:evenodd;stroke:none;stroke-width:0.1;stroke-linecap:butt;stroke-linejoin:miter;stroke-miterlimit:4;stroke-dasharray:none;stroke-opacity:1" />
  </g>
  <g
     inkscape:groupmode="layer"
     id="layer7"
     inkscape:label="finish"
     style="display:inline">
    <circle
       style="display:inline;fill:url(#radialGradient4587);fill-opacity:1;stroke:none;stroke-width:2;stroke-linecap:round;stroke-linejoin:round;stroke-miterlimit:4;stroke-dasharray:none;stroke-opacity:1"
       id="path4136-3"
       cx="24"
       cy="23.999983"
       r="22" />
  </g>
</svg>
