<?xml version="1.0" encoding="UTF-8" standalone="no"?>
<!-- Created with Inkscape (http://www.inkscape.org/) -->

<svg
   xmlns:dc="http://purl.org/dc/elements/1.1/"
   xmlns:cc="http://creativecommons.org/ns#"
   xmlns:rdf="http://www.w3.org/1999/02/22-rdf-syntax-ns#"
   xmlns:svg="http://www.w3.org/2000/svg"
   xmlns="http://www.w3.org/2000/svg"
   xmlns:xlink="http://www.w3.org/1999/xlink"
   xmlns:sodipodi="http://sodipodi.sourceforge.net/DTD/sodipodi-0.dtd"
   xmlns:inkscape="http://www.inkscape.org/namespaces/inkscape"
   width="48"
   height="48"
   id="svg2"
   version="1.1"
   inkscape:version="0.91 r"
   sodipodi:docname="gparted.svg"
   viewBox="0 0 48 48"
   inkscape:export-filename="/home/alexandros/Pictures/personal-icon-set/gparted.png"
   inkscape:export-xdpi="90"
   inkscape:export-ydpi="90">
  <defs
     id="defs4">
    <inkscape:perspective
       sodipodi:type="inkscape:persp3d"
       inkscape:vp_x="0 : 12 : 1"
       inkscape:vp_y="0 : 1000 : 0"
       inkscape:vp_z="24 : 12 : 1"
       inkscape:persp3d-origin="12 : 8 : 1"
       id="perspective3810" />
    <inkscape:perspective
       id="perspective3810-8"
       inkscape:persp3d-origin="12 : 8 : 1"
       inkscape:vp_z="24 : 12 : 1"
       inkscape:vp_y="0 : 1000 : 0"
       inkscape:vp_x="0 : 12 : 1"
       sodipodi:type="inkscape:persp3d" />
    <radialGradient
       inkscape:collect="always"
       xlink:href="#linearGradient4398"
       id="radialGradient4404"
       cx="-34.750008"
       cy="977.61218"
       fx="-34.750008"
       fy="977.61218"
       r="22"
       gradientUnits="userSpaceOnUse"
       gradientTransform="matrix(-1.5519354e-6,2.0000003,-2.0000001,-1.5519353e-6,1957.2244,71.501517)" />
    <linearGradient
       inkscape:collect="always"
       id="linearGradient4398">
      <stop
         style="stop-color:#ffffff;stop-opacity:0.1"
         offset="0"
         id="stop4400" />
      <stop
         style="stop-color:#ffffff;stop-opacity:0"
         offset="1"
         id="stop4402" />
    </linearGradient>
  </defs>
  <sodipodi:namedview
     id="base"
     pagecolor="#ffffff"
     bordercolor="#666666"
     borderopacity="1.0"
     inkscape:pageopacity="0.0"
     inkscape:pageshadow="2"
     inkscape:zoom="8"
     inkscape:cx="-13.507452"
     inkscape:cy="34.154629"
     inkscape:document-units="px"
     inkscape:current-layer="layer7"
     showgrid="false"
     inkscape:snap-grids="true"
     inkscape:object-paths="true"
     inkscape:snap-intersection-paths="true"
     inkscape:snap-smooth-nodes="true"
     inkscape:object-nodes="true"
     inkscape:snap-midpoints="true"
     inkscape:window-width="1680"
     inkscape:window-height="995"
     inkscape:window-x="0"
     inkscape:window-y="27"
     inkscape:window-maximized="1"
     inkscape:showpageshadow="false"
     borderlayer="true"
     inkscape:snap-bbox="true"
     inkscape:snap-nodes="true"
     inkscape:bbox-paths="true"
     inkscape:bbox-nodes="true"
     inkscape:snap-bbox-edge-midpoints="false"
     inkscape:snap-bbox-midpoints="true">
    <inkscape:grid
       type="xygrid"
       id="grid3808"
       empspacing="4"
       visible="true"
       enabled="true"
       snapvisiblegridlinesonly="true" />
  </sodipodi:namedview>
  <metadata
     id="metadata7">
    <rdf:RDF>
      <cc:Work
         rdf:about="">
        <dc:format>image/svg+xml</dc:format>
        <dc:type
           rdf:resource="http://purl.org/dc/dcmitype/StillImage" />
        <dc:title />
      </cc:Work>
    </rdf:RDF>
  </metadata>
  <g
     inkscape:groupmode="layer"
     id="layer4"
     inkscape:label="lines"
     style="display:inline" />
  <g
     inkscape:label="base"
     inkscape:groupmode="layer"
     id="layer1"
     transform="translate(0,-1004.3622)"
     style="display:inline">
    <circle
       style="display:inline;opacity:1;fill:#4c494d;fill-opacity:1;stroke:none;stroke-width:0.2;stroke-linecap:round;stroke-linejoin:round;stroke-miterlimit:4;stroke-dasharray:none;stroke-opacity:0.2"
       id="path4135"
       cx="24"
       cy="1028.3622"
       r="22" />
  </g>
  <g
     inkscape:groupmode="layer"
     id="layer6"
     inkscape:label="longshadow" />
  <g
     inkscape:groupmode="layer"
     id="layer5"
     inkscape:label="dropshadow" />
  <g
     inkscape:groupmode="layer"
     id="layer3"
     inkscape:label="symbol"
     style="display:inline">
    <path
       style="opacity:0.98999999;fill:#333333;fill-opacity:0.4;stroke:none;stroke-width:0.2;stroke-linecap:round;stroke-linejoin:round;stroke-miterlimit:4;stroke-dasharray:none;stroke-opacity:0.2"
       d="M 24.232422,9.001953 A 15.999999,15.999999 0 0 0 12.685547,13.685547 15.999999,15.999999 0 0 0 8.0000003,25 15.999999,15.999999 0 0 0 12.685547,36.314453 15.999999,15.999999 0 0 0 24,41 15.999999,15.999999 0 0 0 35.3125,36.314453 15.999999,15.999999 0 0 0 39.455078,20.859375 15.999999,15.999999 0 0 0 28.140625,9.544922 15.999999,15.999999 0 0 0 24.232422,9.001953 Z"
       id="path4186-9"
       inkscape:connector-curvature="0" />
    <g
       transform="translate(54.499998,-3.3749828)"
       style="display:inline"
       id="g3533">
      <path
         d="m -30.499998,43.374982 a 15.999999,15.999999 0 0 1 -11.313708,-4.686291 15.999999,15.999999 0 0 1 -4.686291,-11.313709 l 15.999999,1e-6 z"
         sodipodi:end="3.1415927"
         sodipodi:start="1.5707963"
         sodipodi:ry="15.999999"
         sodipodi:rx="15.999999"
         sodipodi:cy="27.374983"
         sodipodi:cx="-30.499998"
         sodipodi:type="arc"
         id="path4186"
         style="opacity:1;fill:#e5e5e5;fill-opacity:1;stroke:none;stroke-width:0.2;stroke-linecap:round;stroke-linejoin:round;stroke-miterlimit:4;stroke-dasharray:none;stroke-opacity:0.2" />
      <path
         d="m -41.813706,16.061275 a 15.999999,15.999999 0 0 1 15.454812,-4.141105 15.999999,15.999999 0 0 1 11.313708,11.313708 15.999999,15.999999 0 0 1 -4.141104,15.454813 L -30.499998,27.374983 Z"
         sodipodi:end="0.78539816"
         sodipodi:start="3.9269908"
         sodipodi:ry="15.999999"
         sodipodi:rx="15.999999"
         sodipodi:cy="27.374983"
         sodipodi:cx="-30.499998"
         sodipodi:type="arc"
         id="path4186-16"
         style="opacity:1;fill:#8bc34a;fill-opacity:1;stroke:none;stroke-width:0.2;stroke-linecap:round;stroke-linejoin:round;stroke-miterlimit:4;stroke-dasharray:none;stroke-opacity:0.2" />
      <path
         d="m -19.18629,38.688691 a 15.999999,15.999999 0 0 1 -11.313708,4.686291 l 0,-15.999999 z"
         sodipodi:end="1.5707963"
         sodipodi:start="0.78539816"
         sodipodi:ry="15.999999"
         sodipodi:rx="15.999999"
         sodipodi:cy="27.374983"
         sodipodi:cx="-30.499998"
         sodipodi:type="arc"
         id="path4186-3"
         style="opacity:1;fill:#ef5350;fill-opacity:1;stroke:none;stroke-width:0.2;stroke-linecap:round;stroke-linejoin:round;stroke-miterlimit:4;stroke-dasharray:none;stroke-opacity:0.2" />
      <path
         d="m -46.499997,27.374982 a 15.999999,15.999999 0 0 1 4.686291,-11.313707 l 11.313708,11.313708 z"
         sodipodi:end="3.9269908"
         sodipodi:start="3.1415927"
         sodipodi:ry="15.999999"
         sodipodi:rx="15.999999"
         sodipodi:cy="27.374983"
         sodipodi:cx="-30.499998"
         sodipodi:type="arc"
         id="path4186-5"
         style="opacity:1;fill:#ffd54f;fill-opacity:1;stroke:none;stroke-width:0.2;stroke-linecap:round;stroke-linejoin:round;stroke-miterlimit:4;stroke-dasharray:none;stroke-opacity:0.2" />
    </g>
    <circle
       style="display:inline;opacity:1;fill:#4c494d;fill-opacity:1;stroke:none;stroke-width:0.2;stroke-linecap:round;stroke-linejoin:round;stroke-miterlimit:4;stroke-dasharray:none;stroke-opacity:0.2"
       id="path4190"
       cx="24"
       cy="24"
       r="4" />
  </g>
  <g
     inkscape:groupmode="layer"
     id="layer2"
     inkscape:label="tint&amp;shade"
     style="display:inline">
    <path
       style="opacity:1;fill:#ffffff;fill-opacity:0.2;stroke:none;stroke-width:0.2;stroke-linecap:round;stroke-linejoin:round;stroke-miterlimit:4;stroke-dasharray:none;stroke-opacity:0.2"
       d="M 46,24 C 46,13 36.150264,3 24,3 11.849736,3 2,13 2,24 2,11.8497 11.849736,2 24,2 36.150264,2 46,11.8497 46,24 Z"
       id="path4135-6"
       inkscape:connector-curvature="0"
       sodipodi:nodetypes="cscsc" />
    <path
       style="opacity:1;fill:#333333;fill-opacity:0.40000001;stroke:none;stroke-width:0.2;stroke-linecap:round;stroke-linejoin:round;stroke-miterlimit:4;stroke-dasharray:none;stroke-opacity:0.2"
       d="M 46,24 C 46,35 36.150264,45 24,45 11.849736,45 2,35 2,24 2,36.1503 11.849736,46 24,46 36.150264,46 46,36.1503 46,24 Z"
       id="path4135-6-1"
       inkscape:connector-curvature="0"
       sodipodi:nodetypes="cscsc" />
    <path
       style="opacity:1;fill:#ffffff;fill-opacity:0.2;stroke:none;stroke-width:0.2;stroke-linecap:round;stroke-linejoin:round;stroke-miterlimit:4;stroke-dasharray:none;stroke-opacity:0.2"
       d="M 40,24 C 40,16 32.836556,9 24,9 15.163444,9 8,16 8,24 8,15.1634 15.163444,8 24,8 c 8.836556,0 16,7.1634 16,16 z"
       id="path4186-1-3"
       inkscape:connector-curvature="0"
       sodipodi:nodetypes="cscsc" />
    <path
       style="opacity:1;fill:#333333;fill-opacity:0.2;stroke:none;stroke-width:0.2;stroke-linecap:round;stroke-linejoin:round;stroke-miterlimit:4;stroke-dasharray:none;stroke-opacity:0.2"
       d="M 40,24 C 40,32 32.836556,39 24,39 15.163444,39 8,32 8,24 c 0,8.8366 7.163444,16 16,16 8.836556,0 16,-7.1634 16,-16 z"
       id="path4186-1-3-6"
       inkscape:connector-curvature="0"
       sodipodi:nodetypes="cscsc" />
    <path
       style="display:inline;opacity:1;fill:#333333;fill-opacity:0.40000001;stroke:none;stroke-width:0.2;stroke-linecap:round;stroke-linejoin:round;stroke-miterlimit:4;stroke-dasharray:none;stroke-opacity:0.2"
       d="m 20,24 c 0,-2 1.790861,-3 4,-3 2.209139,0 4,1 4,3 0,-2.2091 -1.790861,-4 -4,-4 -2.209139,0 -4,1.7909 -4,4 z"
       id="path4190-4"
       inkscape:connector-curvature="0"
       sodipodi:nodetypes="cscsc" />
    <path
       style="display:inline;opacity:1;fill:#ffffff;fill-opacity:0.1;stroke:none;stroke-width:0.2;stroke-linecap:round;stroke-linejoin:round;stroke-miterlimit:4;stroke-dasharray:none;stroke-opacity:0.2"
       d="m 20,24 c 0,2 1.790861,3 4,3 2.209139,0 4,-1 4,-3 0,2.2091 -1.790861,4 -4,4 -2.209139,0 -4,-1.7909 -4,-4 z"
       id="path4190-4-8"
       inkscape:connector-curvature="0"
       sodipodi:nodetypes="cscsc" />
  </g>
  <g
     inkscape:groupmode="layer"
     id="layer7"
     inkscape:label="finish"
     style="display:inline">
    <circle
       style="display:inline;opacity:1;fill:url(#radialGradient4404);fill-opacity:1;stroke:none;stroke-width:0.2;stroke-linecap:round;stroke-linejoin:round;stroke-miterlimit:4;stroke-dasharray:none;stroke-opacity:0.2"
       id="path4135-0"
       cx="24"
       cy="24"
       r="22" />
  </g>
</svg>
