<?xml version="1.0" encoding="UTF-8" standalone="no"?>
<!-- Created with Inkscape (http://www.inkscape.org/) -->

<svg
   xmlns:dc="http://purl.org/dc/elements/1.1/"
   xmlns:cc="http://creativecommons.org/ns#"
   xmlns:rdf="http://www.w3.org/1999/02/22-rdf-syntax-ns#"
   xmlns:svg="http://www.w3.org/2000/svg"
   xmlns="http://www.w3.org/2000/svg"
   xmlns:xlink="http://www.w3.org/1999/xlink"
   xmlns:sodipodi="http://sodipodi.sourceforge.net/DTD/sodipodi-0.dtd"
   xmlns:inkscape="http://www.inkscape.org/namespaces/inkscape"
   width="48"
   height="48"
   id="svg2"
   version="1.1"
   inkscape:version="0.91 r"
   sodipodi:docname="plank.svg"
   inkscape:export-filename="/home/alexandros/Pictures/personal-icon-set/plank.png"
   inkscape:export-xdpi="90"
   inkscape:export-ydpi="90">
  <defs
     id="defs4">
    <linearGradient
       inkscape:collect="always"
       id="linearGradient4522">
      <stop
         style="stop-color:#b3e5fc;stop-opacity:0.1"
         offset="0"
         id="stop4524" />
      <stop
         style="stop-color:#eafbfe;stop-opacity:0"
         offset="1"
         id="stop4526" />
    </linearGradient>
    <inkscape:perspective
       sodipodi:type="inkscape:persp3d"
       inkscape:vp_x="0 : 12 : 1"
       inkscape:vp_y="0 : 1000 : 0"
       inkscape:vp_z="24 : 12 : 1"
       inkscape:persp3d-origin="12 : 8 : 1"
       id="perspective3810" />
    <radialGradient
       inkscape:collect="always"
       xlink:href="#linearGradient4522"
       id="radialGradient4176"
       cx="31.000006"
       cy="1003.3661"
       fx="31.000006"
       fy="1003.3661"
       r="20"
       gradientTransform="matrix(-1.0913717e-6,2.0000108,-2.0000005,-1.091366e-6,2010.7327,946.36294)"
       gradientUnits="userSpaceOnUse" />
  </defs>
  <sodipodi:namedview
     id="base"
     pagecolor="#ffffff"
     bordercolor="#666666"
     borderopacity="1.0"
     inkscape:pageopacity="0.0"
     inkscape:pageshadow="2"
     inkscape:zoom="2.8284271"
     inkscape:cx="94.975967"
     inkscape:cy="11.177606"
     inkscape:document-units="px"
     inkscape:current-layer="layer1"
     showgrid="false"
     inkscape:snap-grids="true"
     inkscape:object-paths="true"
     inkscape:snap-intersection-paths="true"
     inkscape:snap-smooth-nodes="true"
     inkscape:object-nodes="true"
     inkscape:snap-midpoints="false"
     inkscape:window-width="1680"
     inkscape:window-height="995"
     inkscape:window-x="0"
     inkscape:window-y="27"
     inkscape:window-maximized="1"
     inkscape:showpageshadow="false"
     borderlayer="true"
     inkscape:snap-bbox="true"
     inkscape:snap-nodes="true"
     inkscape:bbox-paths="true"
     inkscape:bbox-nodes="true"
     inkscape:snap-bbox-edge-midpoints="true"
     inkscape:snap-bbox-midpoints="false"
     inkscape:snap-global="true">
    <inkscape:grid
       type="xygrid"
       id="grid3808"
       empspacing="4"
       visible="true"
       enabled="true"
       snapvisiblegridlinesonly="true" />
  </sodipodi:namedview>
  <metadata
     id="metadata7">
    <rdf:RDF>
      <cc:Work
         rdf:about="">
        <dc:format>image/svg+xml</dc:format>
        <dc:type
           rdf:resource="http://purl.org/dc/dcmitype/StillImage" />
        <dc:title></dc:title>
      </cc:Work>
    </rdf:RDF>
  </metadata>
  <g
     inkscape:label="Layer 1"
     inkscape:groupmode="layer"
     id="layer1"
     transform="translate(0,-1004.3622)">
    <path
       inkscape:connector-curvature="0"
       style="opacity:1;fill:#81d4fa;fill-opacity:1;stroke:none;stroke-width:0.1;stroke-linecap:round;stroke-linejoin:round;stroke-miterlimit:4;stroke-dasharray:none;stroke-opacity:1"
       d="m 7,1008.3622 34,0 c 1.662,0 3,1.338 3,3 l 0,34 c 0,1.662 -1.338,3 -3,3 l -34,0 c -1.662,0 -3,-1.338 -3,-3 l 0,-34 c 0,-1.662 1.338,-3 3,-3 z"
       id="rect4135" />
    <path
       style="opacity:1;fill:#000000;fill-opacity:0.2;stroke:none;stroke-width:0.1;stroke-linecap:round;stroke-linejoin:round;stroke-miterlimit:4;stroke-dasharray:none;stroke-opacity:1"
       d="m 38,1044.3622 c 0,0 0,2 -1,2 l -26,0 c -1,0 -1,-2 -1,-2 z"
       id="rect4158-4"
       inkscape:connector-curvature="0"
       sodipodi:nodetypes="csscc" />
    <path
       style="opacity:1;fill:#333333;fill-opacity:0.2;stroke:none;stroke-width:0.1;stroke-linecap:round;stroke-linejoin:round;stroke-miterlimit:4;stroke-dasharray:none;stroke-opacity:1"
       d="m 23.999999,1012.3622 c -2.485281,0 -4.499999,2.0147 -4.499999,4.5 0.0017,1.7244 0.988584,3.2962 2.541015,4.0469 0.03525,0.388 0.08754,1.0587 0.142578,2.4531 l -5.183593,-1 1e-6,1 2.999999,3 2.246093,0 c 6.09e-4,3.5889 -0.240834,8.4449 -1.177735,13.5996 -3.64124,-0.9176 -7.69488,-3.4481 -9.332029,-7.5957 l 2.263672,0 -10e-7,-1.0039 c 0,0 -2.410183,-0.4102 -3,-1 -1.4189765,-1.419 -2.0000002,-2.9961 -2.0000002,-2.9961 0,0 -0.04883,1.0309 0,2 0.1136002,1.0417 0.2510362,1.9121 0.5410162,2.9981 l -0.002,0 c 1.399326,5.0664 5.390719,9.0573 10.457031,10.457 1.27454,0.3522 3.003905,0.541 4.003905,1.541 1,-1 2.719873,-1.1875 3.990234,-1.5371 5.072626,-1.3961 9.067883,-5.3883 10.46875,-10.459 l 0,0 c 0.290347,-1.0869 0.427346,-1.9577 0.541016,-3 0.04883,-0.9691 0,-2 0,-2 0,0 -0.581024,1.5771 -2,2.9961 -0.702597,0.7026 -2.999952,1 -2.999952,1 l -4.8e-5,1.0039 2.257812,0 c -1.633936,4.1551 -5.686347,6.6832 -9.328124,7.5996 -0.942443,-5.154 -1.183774,-10.0101 -1.181641,-13.5996 l 2.251953,0 3,-3 4.8e-5,-1.0039 -5.185595,1.0039 c 0.0561,-1.3963 0.108904,-2.0678 0.144531,-2.4551 1.551782,-0.7504 2.538594,-2.3212 2.541016,-4.0449 0,-2.4853 -2.014719,-4.5 -4.5,-4.5 z m 0,2 c 1.380712,0 2.5,1.1193 2.5,2.5 0,1.3807 -1.119288,2.5 -2.5,2.5 -1.380712,0 -2.5,-1.1193 -2.5,-2.5 0,-1.3807 1.119288,-2.5 2.5,-2.5 z"
       id="path4162-2"
       inkscape:connector-curvature="0"
       sodipodi:nodetypes="ccccccccccccscccccccccccscccccccccccccsssss" />
    <path
       style="opacity:1;fill:#a1887f;fill-opacity:1;stroke:none;stroke-width:0.1;stroke-linecap:round;stroke-linejoin:round;stroke-miterlimit:4;stroke-dasharray:none;stroke-opacity:1"
       d="m 33.515625,1040.3622 c 0.487655,0 1.030279,0.5455 1.484375,1 l 3,3.0026 c 0.391614,0.392 -0.446,1 -1,1 l -26,0 c -0.554,0 -1.3916164,-0.608 -1,-1 l 3,-3.0026 c 0.478091,-0.4785 0.956884,-0.9774 1.510521,-0.9974 6.496383,-0.01 12.508637,0 19.005104,0 z"
       id="rect4158"
       inkscape:connector-curvature="0"
       sodipodi:nodetypes="cssssssccc" />
    <path
       style="opacity:1;fill:#0091ea;fill-opacity:1;stroke:none;stroke-width:0.1;stroke-linecap:round;stroke-linejoin:round;stroke-miterlimit:4;stroke-dasharray:none;stroke-opacity:1"
       d="m 24,1011.3622 a 4.5,4.5 0 0 0 -4.5,4.5 4.5,4.5 0 0 0 2.541016,4.0469 c 0.03525,0.388 0.08754,1.0587 0.142578,2.4531 l -5.183594,0 3,3 2.246094,0 c 6.09e-4,3.5889 -0.240834,8.4449 -1.177735,13.5996 -3.641242,-0.9176 -7.694882,-3.4481 -9.332031,-7.5957 l 2.263672,0 c 0,0 -1.581024,-0.5849 -3,-2.0039 -1.418976,-1.419 -2,-2.9961 -2,-2.9961 0,0 -0.04883,1.0309 0,2 0.1136003,1.0417 0.2510355,1.9121 0.5410156,2.9981 l -0.00195,0 c 1.3993264,5.0664 5.3907184,9.0573 10.4570314,10.457 1.274541,0.3522 3.003906,0.541 4.003906,1.541 1,-1 2.719873,-1.1875 3.990234,-1.5371 5.072626,-1.3961 9.067883,-5.3883 10.46875,-10.459 l 0,0 c 0.290347,-1.0869 0.427346,-1.9577 0.541016,-3 0.04883,-0.9691 0,-2 0,-2 0,0 -0.581024,1.5771 -2,2.9961 -1.418976,1.419 -3,2.0039 -3,2.0039 l 2.257812,0 c -1.633936,4.1551 -5.686347,6.6832 -9.328124,7.5996 -0.942443,-5.154 -1.183774,-10.0101 -1.181641,-13.5996 l 2.251953,0 3,-3 -5.185547,0 c 0.0561,-1.3963 0.108904,-2.0678 0.144531,-2.4551 a 4.5,4.5 0 0 0 2.541016,-4.0449 4.5,4.5 0 0 0 -4.5,-4.5 z m 0,2 a 2.5,2.5 0 0 1 2.5,2.5 2.5,2.5 0 0 1 -2.5,2.5 2.5,2.5 0 0 1 -2.5,-2.5 2.5,2.5 0 0 1 2.5,-2.5 z"
       id="path4162"
       inkscape:connector-curvature="0" />
    <rect
       style="opacity:1;fill:#eafbfe;fill-opacity:1;stroke:none;stroke-width:0.1;stroke-linecap:round;stroke-linejoin:round;stroke-miterlimit:4;stroke-dasharray:none;stroke-opacity:1"
       id="rect4238"
       width="3.9999826"
       height="3.9999826"
       x="13"
       y="1039.3622"
       rx="1"
       ry="1" />
    <rect
       style="opacity:1;fill:#eafbfe;fill-opacity:1;stroke:none;stroke-width:0.1;stroke-linecap:round;stroke-linejoin:round;stroke-miterlimit:4;stroke-dasharray:none;stroke-opacity:1"
       id="rect4238-7"
       width="3.9999826"
       height="3.9999826"
       x="19"
       y="1039.3622"
       rx="1"
       ry="1" />
    <rect
       style="opacity:1;fill:#eafbfe;fill-opacity:1;stroke:none;stroke-width:0.1;stroke-linecap:round;stroke-linejoin:round;stroke-miterlimit:4;stroke-dasharray:none;stroke-opacity:1"
       id="rect4238-7-9"
       width="3.9999826"
       height="3.9999826"
       x="25"
       y="1039.3622"
       rx="1"
       ry="1" />
    <rect
       style="opacity:1;fill:#eafbfe;fill-opacity:1;stroke:none;stroke-width:0.1;stroke-linecap:round;stroke-linejoin:round;stroke-miterlimit:4;stroke-dasharray:none;stroke-opacity:1"
       id="rect4238-7-6"
       width="3.9999826"
       height="3.9999826"
       x="31.000017"
       y="1039.3622"
       rx="1"
       ry="1" />
    <path
       style="opacity:1;fill:#333333;fill-opacity:0.2;stroke:none;stroke-width:0.1;stroke-linecap:round;stroke-linejoin:round;stroke-miterlimit:4;stroke-dasharray:none;stroke-opacity:1"
       d="m 38,1044.3622 c 0.391614,0.392 -0.446,1 -1,1 l -26,0 c -0.554,0 -1.3916166,-0.608 -1.0000002,-1 8.1534612,0 20.1008162,0 28.0000002,0 z"
       id="rect4158-0"
       inkscape:connector-curvature="0"
       sodipodi:nodetypes="csscc" />
    <path
       inkscape:connector-curvature="0"
       style="opacity:1;fill:#ffffff;fill-opacity:0.40000001;stroke:none;stroke-width:0.1;stroke-linecap:round;stroke-linejoin:round;stroke-miterlimit:4;stroke-dasharray:none;stroke-opacity:1"
       d="m 7,1008.3622 34,0 c 1.662,0 3,1.3536 3,3 0,-1.0031 -1.391828,-2 -3,-2 -8.582825,0 -32.6779363,0 -34,0 -1.609375,0 -3,1 -3,2 0,-1.6562 1.338,-3 3,-3 z"
       id="rect4135-7"
       sodipodi:nodetypes="sscsscs" />
    <path
       inkscape:connector-curvature="0"
       style="opacity:1;fill:#333333;fill-opacity:0.2;stroke:none;stroke-width:0.1;stroke-linecap:round;stroke-linejoin:round;stroke-miterlimit:4;stroke-dasharray:none;stroke-opacity:1"
       d="m 7,1048.3622 34,0 c 1.662,0 3,-1.3536 3,-3 0,1.0031 -1.391828,2 -3,2 -8.582825,0 -32.677936,0 -34,0 -1.609375,0 -3,-1 -3,-2 0,1.6562 1.338,3 3,3 z"
       id="rect4135-7-5"
       sodipodi:nodetypes="sscsscs" />
    <path
       style="opacity:1;fill:#ffffff;fill-opacity:0.2;stroke:none;stroke-width:0.1;stroke-linecap:round;stroke-linejoin:round;stroke-miterlimit:4;stroke-dasharray:none;stroke-opacity:1"
       d="m 28.500053,1015.8622 c 0,-2.4853 -2.014719,-4.5 -4.5,-4.5 l -5.3e-5,0 c -2.485281,0 -4.5,2.0147 -4.5,4.5 0,-1.5 1.5,-3.5 4.5,-3.5 3,0 4.500053,2 4.500053,3.5 z"
       id="path4162-5"
       inkscape:connector-curvature="0"
       sodipodi:nodetypes="cccczc" />
    <path
       style="fill:#ffffff;fill-opacity:0.2;fill-rule:evenodd;stroke:none;stroke-width:1px;stroke-linecap:butt;stroke-linejoin:miter;stroke-opacity:1"
       d="m 22.183594,1022.3622 c -1.178937,0 -2.555072,0.5636 -4.183594,1 l -1,-1 z"
       id="path4336"
       inkscape:connector-curvature="0"
       sodipodi:nodetypes="cccc" />
    <path
       style="fill:#ffffff;fill-opacity:0.2;fill-rule:evenodd;stroke:none;stroke-width:1px;stroke-linecap:butt;stroke-linejoin:miter;stroke-opacity:1"
       d="m 25.816409,1022.3661 c 1.178937,0 2.555072,0.5636 4.183594,1 l 1,-1 z"
       id="path4336-9"
       inkscape:connector-curvature="0"
       sodipodi:nodetypes="cccc" />
    <path
       style="opacity:1;fill:#ffffff;fill-opacity:0.2;stroke:none;stroke-width:0.1;stroke-linecap:round;stroke-linejoin:round;stroke-miterlimit:4;stroke-dasharray:none;stroke-opacity:1"
       d="m 14,1031.3661 c 0,0 -1.581024,-0.5849 -3,-2.0039 -1.418975,-1.419 -1.999999,-2.9961 -1.999999,-2.9961 0,0 -0.04883,1.0309 0,2 0.5520645,0.6429 2.558291,3 4.999999,3 z"
       id="path4162-55"
       inkscape:connector-curvature="0"
       sodipodi:nodetypes="csccc" />
    <path
       style="opacity:1;fill:#ffffff;fill-opacity:0.2;stroke:none;stroke-width:0.1;stroke-linecap:round;stroke-linejoin:round;stroke-miterlimit:4;stroke-dasharray:none;stroke-opacity:1"
       d="m 34.000003,1031.3661 c 0,0 1.581024,-0.5849 3,-2.0039 1.418975,-1.419 1.999999,-2.9961 1.999999,-2.9961 0,0 0.04883,1.0309 0,2 -0.552064,0.6429 -2.558291,3 -4.999999,3 z"
       id="path4162-55-2"
       inkscape:connector-curvature="0"
       sodipodi:nodetypes="csccc" />
    <path
       inkscape:connector-curvature="0"
       style="opacity:1;fill:url(#radialGradient4176);fill-opacity:1;stroke:none;stroke-width:0.1;stroke-linecap:round;stroke-linejoin:round;stroke-miterlimit:4;stroke-dasharray:none;stroke-opacity:1"
       d="m 7,1008.3622 34,0 c 1.662,0 3,1.3379 3,3 l 0,34.0002 c 0,1.662 -1.338,3 -3,3 l -34,0 c -1.662,0 -3,-1.338 -3,-3 l 0,-34.0002 c 0,-1.662 1.338,-3 3,-3 z"
       id="rect4135-3" />
  </g>
</svg>
