<?xml version="1.0" encoding="UTF-8" standalone="no"?>
<!-- Created with Inkscape (http://www.inkscape.org/) -->

<svg
   xmlns:dc="http://purl.org/dc/elements/1.1/"
   xmlns:cc="http://creativecommons.org/ns#"
   xmlns:rdf="http://www.w3.org/1999/02/22-rdf-syntax-ns#"
   xmlns:svg="http://www.w3.org/2000/svg"
   xmlns="http://www.w3.org/2000/svg"
   xmlns:xlink="http://www.w3.org/1999/xlink"
   xmlns:sodipodi="http://sodipodi.sourceforge.net/DTD/sodipodi-0.dtd"
   xmlns:inkscape="http://www.inkscape.org/namespaces/inkscape"
   width="48"
   height="48"
   id="svg2"
   version="1.1"
   inkscape:version="0.91 r"
   sodipodi:docname="totem.svg"
   inkscape:export-filename="/home/alexandros/Pictures/personal-icon-set/totem.png"
   inkscape:export-xdpi="90"
   inkscape:export-ydpi="90">
  <defs
     id="defs4">
    <linearGradient
       inkscape:collect="always"
       id="linearGradient4177">
      <stop
         style="stop-color:#e1e1e1;stop-opacity:0.1"
         offset="0"
         id="stop4179" />
      <stop
         style="stop-color:#e1e1e1;stop-opacity:0;"
         offset="1"
         id="stop4181" />
    </linearGradient>
    <inkscape:perspective
       sodipodi:type="inkscape:persp3d"
       inkscape:vp_x="0 : 12 : 1"
       inkscape:vp_y="0 : 1000 : 0"
       inkscape:vp_z="24 : 12 : 1"
       inkscape:persp3d-origin="12 : 8 : 1"
       id="perspective3810" />
    <linearGradient
       y2="37.084248"
       x2="33.046341"
       y1="14.342306"
       x1="19.916273"
       gradientUnits="userSpaceOnUse"
       id="linearGradient3043"
       xlink:href="#linearGradient4086"
       inkscape:collect="always" />
    <linearGradient
       id="linearGradient4086">
      <stop
         style="stop-color:#ffffff;stop-opacity:0.14901961;"
         offset="0"
         id="stop4088" />
      <stop
         style="stop-color:#177ed5;stop-opacity:0;"
         offset="1"
         id="stop4090" />
    </linearGradient>
    <linearGradient
       y2="37.084248"
       x2="33.046341"
       y1="14.342306"
       x1="19.916273"
       gradientUnits="userSpaceOnUse"
       id="linearGradient3022"
       xlink:href="#linearGradient4086"
       inkscape:collect="always" />
    <linearGradient
       inkscape:collect="always"
       xlink:href="#linearGradient4177"
       id="linearGradient4183"
       x1="8.4436512"
       y1="1012.8058"
       x2="46"
       y2="1050.3622"
       gradientUnits="userSpaceOnUse"
       gradientTransform="translate(0.03087787,-3.6072591e-5)" />
  </defs>
  <sodipodi:namedview
     id="base"
     pagecolor="#ffffff"
     bordercolor="#666666"
     borderopacity="1.0"
     inkscape:pageopacity="0"
     inkscape:pageshadow="2"
     inkscape:zoom="8"
     inkscape:cx="-0.84292"
     inkscape:cy="18.676946"
     inkscape:document-units="px"
     inkscape:current-layer="layer1"
     showgrid="false"
     inkscape:snap-grids="true"
     inkscape:object-paths="true"
     inkscape:snap-intersection-paths="true"
     inkscape:snap-smooth-nodes="true"
     inkscape:object-nodes="true"
     inkscape:snap-midpoints="true"
     inkscape:window-width="1680"
     inkscape:window-height="995"
     inkscape:window-x="0"
     inkscape:window-y="27"
     inkscape:window-maximized="1"
     inkscape:showpageshadow="false"
     borderlayer="true"
     inkscape:snap-bbox="true"
     inkscape:snap-nodes="true"
     inkscape:bbox-paths="true"
     inkscape:bbox-nodes="true"
     inkscape:snap-bbox-edge-midpoints="false"
     inkscape:snap-bbox-midpoints="false"
     inkscape:snap-object-midpoints="true"
     inkscape:snap-to-guides="false"
     inkscape:snap-global="true">
    <inkscape:grid
       type="xygrid"
       id="grid3808"
       empspacing="4"
       visible="true"
       enabled="true"
       snapvisiblegridlinesonly="true" />
  </sodipodi:namedview>
  <metadata
     id="metadata7">
    <rdf:RDF>
      <cc:Work
         rdf:about="">
        <dc:format>image/svg+xml</dc:format>
        <dc:type
           rdf:resource="http://purl.org/dc/dcmitype/StillImage" />
        <dc:title />
      </cc:Work>
    </rdf:RDF>
  </metadata>
  <g
     inkscape:label="Layer 1"
     inkscape:groupmode="layer"
     id="layer1"
     transform="translate(0,-1004.3622)">
    <path
       style="color:#000000;font-style:normal;font-variant:normal;font-weight:normal;font-stretch:normal;font-size:medium;line-height:normal;font-family:Sans;-inkscape-font-specification:Sans;text-indent:0;text-align:start;text-decoration:none;text-decoration-line:none;letter-spacing:normal;word-spacing:normal;text-transform:none;direction:ltr;block-progression:tb;writing-mode:lr-tb;baseline-shift:baseline;text-anchor:start;display:inline;overflow:visible;visibility:visible;fill:#4d4d4d;fill-opacity:1;stroke:none;stroke-width:1px;marker:none;enable-background:accumulate"
       d="m 38.75,1029.7763 c -0.189672,0.046 -0.343934,0.2134 -0.375,0.4062 0,0 -0.621392,3.0419 -0.84375,6.5938 -0.222358,3.5518 -1.226265,5.6402 -0.484148,8.4098 0.675185,2.5198 3.505487,4.5203 5.952898,5.1761 0.502988,-0.8712 1.626972,-2.7541 1.962235,-3.3348 -2.505487,-0.6681 -3.38435,-1.0049 -4.679877,-2.3003 -0.97822,-0.9782 -1.634494,-5.4664 -1.411151,-8.0775 0.329533,-3.8525 0.503791,-6.3103 0.503791,-6.3103 0.05328,-0.3286 -0.303766,-0.65 -0.625,-0.5625 z"
       id="path4400"
       inkscape:connector-curvature="0"
       sodipodi:nodetypes="ccssccssccc" />
    <circle
       r="15.5"
       cy="1028.3622"
       cx="24"
       style="fill:#4d4d4d;fill-opacity:1;stroke:none"
       id="path4186" />
    <circle
       cy="1028.3622"
       cx="24"
       style="fill:none;stroke:#666666;stroke-width:1;stroke-linecap:round;stroke-miterlimit:4;stroke-dasharray:none;stroke-opacity:1"
       id="path4199-4-7"
       r="13.500001" />
    <circle
       cy="1028.3622"
       cx="24"
       style="fill:none;stroke:#666666;stroke-width:1;stroke-linecap:round;stroke-miterlimit:4;stroke-dasharray:none;stroke-opacity:1"
       id="path4199-4-7-0-7-5-2"
       r="11.5" />
    <path
       inkscape:connector-curvature="0"
       style="fill:#d9d9d9;fill-opacity:1;stroke:none"
       d="m 24.063935,1006.3622 c -7.430597,-0.015 -14.6795958,3.7472 -18.8342801,10.5539 -6.33085,10.3721 -3.0479006,23.8906 7.3227121,30.2224 10.370585,6.3316 23.887153,3.0483 30.217977,-7.3238 6.33085,-10.372 3.0479,-23.8906 -7.322685,-30.2223 -3.56486,-2.1766 -7.49151,-3.2221 -11.383724,-3.2302 z m -7.578491,4.9891 c 0.222695,-0.017 0.45032,-0.015 0.671566,0 1.474506,0.1043 2.882568,0.9261 3.67726,2.3027 1.27154,2.2027 0.507608,5.0287 -1.694694,6.3003 -2.202373,1.2718 -5.027915,0.5078 -6.299454,-1.6949 -1.27154,-2.2027 -0.507609,-5.0287 1.694763,-6.3005 0.619434,-0.3576 1.282269,-0.5571 1.950586,-0.6075 z m 14.357623,0 c 0.884701,-0.062 1.796198,0.1308 2.622093,0.6077 2.202343,1.2718 2.966265,4.0976 1.694695,6.3003 -1.271513,2.2027 -4.097072,2.9668 -6.298488,1.6985 -2.202342,-1.2717 -2.966264,-4.0977 -1.694695,-6.3003 0.794701,-1.3767 2.202798,-2.1984 3.67732,-2.3028 z m -20.656975,12.4088 c 2.543052,0 4.604611,2.0619 4.604624,4.6053 -2.9e-5,2.5435 -2.061554,4.6054 -4.604633,4.6053 -2.5431474,10e-5 -4.6046792,-2.0619 -4.604623,-4.6053 -3.95e-5,-2.5434 2.0614844,-4.6052 4.604632,-4.6053 z m 28.139532,0 c 2.543079,1e-4 4.60461,2.0619 4.60465,4.6054 -5.5e-5,2.5434 -2.06158,4.6052 -4.60466,4.6052 -2.543148,0 -4.604679,-2.0619 -4.604623,-4.6053 -3.9e-5,-2.5435 2.061485,-4.6052 4.604633,-4.6053 z m -21.808165,12.4087 c 0.884675,-0.062 1.796172,0.1308 2.622067,0.6077 2.202439,1.2717 2.966361,4.0976 1.694722,6.3004 -1.271539,2.2026 -4.097002,2.9666 -6.298487,1.6984 -2.202344,-1.2718 -2.966265,-4.0976 -1.694722,-6.3003 0.794702,-1.3767 2.202894,-2.1985 3.677348,-2.3027 z m 14.293618,10e-5 c 0.222865,-0.016 0.45032,-0.015 0.671472,-10e-5 1.474478,0.1042 2.882635,0.926 3.677354,2.3027 1.27154,2.2027 0.507609,5.0287 -1.69479,6.3003 -2.202399,1.2717 -5.027845,0.5077 -6.299384,-1.695 -1.271541,-2.2027 -0.507609,-5.0286 1.69479,-6.3003 0.619338,-0.3577 1.282242,-0.5573 1.950584,-0.6075 z"
       id="path2985" />
    <path
       style="opacity:1;fill:#ffffff;fill-opacity:0.40000001;stroke:none"
       d="m 46.000001,1028.3654 c 0,-11.0665 -9.849737,-20.9798 -22.000004,-20.9798 -12.150264,0 -21.9999979,9.7854 -21.9999979,20.9798 0,-12.152 9.8497339,-22.0032 21.9999979,-22.0032 12.150267,0 22.000004,9.8512 22.000004,22.0032 z"
       id="path4688"
       inkscape:connector-curvature="0"
       sodipodi:nodetypes="cscsc" />
    <path
       style="opacity:1;fill:#333333;fill-opacity:0.2;stroke:none"
       d="m 46.000001,1028.359 c 0,11.1305 -9.849737,20.9798 -22.000004,20.9798 -12.150264,0 -21.9999979,-9.6575 -21.9999979,-20.9798 0,12.152 9.8497339,22.0032 21.9999979,22.0032 12.150267,0 22.000004,-9.8512 22.000004,-22.0032 z"
       id="path4688-9"
       inkscape:connector-curvature="0"
       sodipodi:nodetypes="cscsc" />
    <circle
       r="5.5"
       cy="1028.3622"
       cx="24"
       style="fill:#b3b3b3;fill-opacity:1;stroke:none"
       id="path4396" />
    <circle
       r="1.5"
       cy="1028.3622"
       cx="24"
       style="fill:#666666;fill-opacity:1;stroke:none"
       id="path4398" />
    <path
       style="opacity:0.2;fill:#000000;fill-opacity:1;stroke:none"
       d="m 29.5,1028.3622 c 0,-2.7358 -2.230415,-4.453 -5.5,-4.453 -3.269585,0 -5.5,1.7835 -5.5,4.453 0,-3.0376 2.506628,-5.5 5.5,-5.5 2.993372,0 5.5,2.4624 5.5,5.5 z"
       id="path4396-2"
       inkscape:connector-curvature="0"
       sodipodi:nodetypes="czczc" />
    <path
       style="opacity:0.2;fill:#ffffff;fill-opacity:1;stroke:none"
       d="m 29.5,1028.3622 c 0,2.7358 -2.230415,4.453 -5.5,4.453 -3.269586,0 -5.5,-1.7835 -5.5,-4.453 0,3.0376 2.506628,5.5 5.5,5.5 2.993372,0 5.5,-2.4624 5.5,-5.5 z"
       id="path4396-2-0"
       inkscape:connector-curvature="0"
       sodipodi:nodetypes="czczc" />
    <circle
       cy="1028.3622"
       cx="24.030876"
       style="fill:url(#linearGradient4183);fill-opacity:1;stroke:none"
       id="path2983-1-3"
       r="22" />
  </g>
</svg>
